<svg id="mapSVG" xmlns="http://www.w3.org/2000/svg" version="1.1" xmlns:xlink="http://www.w3.org/1999/xlink" xmlns:ev="http://www.w3.org/2001/xml-events" style="overflow: hidden; " width="360" height="360" viewBox="0 0 360 360"><g id="viewport-20260421165812613" class="svg-pan-zoom_viewport" transform="matrix(3.5999999046325684,0,0,3.5999999046325684,0.00000476837158203125,0.00000476837158203125)" style="transform: matrix(3.6, 0, 0, 3.6, 0.00000476837, 0.00000476837);">
<!-- © Copyright FreeSVGMaps.com, Striped Candy LLC All rights reserved -->
  
  <g id="mapGroup"><path id="mapPath" d="M10.694117,41.840843l-.094712-.039715-.318983.020196-.129694.068205.459361.128342.088762.085606.019429-.034756.033945-.131587-.015823-.063021-.042285-.033269ZM6.592461,36.590874l.075779.026507.012487-.03124.036289-.02263.055718-.018347.002615-.087004-.072172.019745-.110715.112969ZM82.220318,54.636683l-.146148.097056-.025515.076275.049497-.011811.164991-.077266.024884-.019925.003246-.020196-.01145-.022269-.059505-.021864ZM8.271856,62.407187l-.031015-.004418-.019925.030834-.021819.050624.00834.031646.013389.01109.045756-.001984.063427-.024208.019024-.027589-.035117-.030474-.042059-.035523ZM19.811599,73.190629l-.089573.068746-.009963.064238.120543-.00852.043231-.036514-.003697-.078934-.060542-.009016ZM37.063196,45.936639l-.115855.175495.084614.009918.129198-.040527.036199-.091647-.075373-.015552-.058784-.037687ZM39.111973,47.558918l.038273-.126989.205247-.301267.006131-.103187-.054186-.070189-.199522.005139-.032953-.005274-.079836.029707-.050895.088987-.019925.117883-.060722.129469-.036605.019565-.113555.02263-.01722.03665-.023306.120047.0142.051616.039986.038273.236623.063066.068927-.0087.07934-.107425ZM37.342869,49.708538l-.030068-.021323-.035838.025109-.075959.10179.015643.052743.059009.029166.049588-.034666.038047-.083983-.002615-.040887-.017806-.027949ZM6.206309,37.090356l-.038092-.042194-.011676.017491-.02272.11324.01713.010999-.017761.037732.078393.00568.012397-.037191-.012532-.088356-.005139-.017401ZM5.968515,37.040138l-.023126.010368-.052382.032457-.042465.048325-.024974.000902-.055763.022405.007213.025786.048686.066583.106703-.019925.05644-.033088.025876-.044854-.019384-.106884-.026822-.002074ZM6.055969,36.116502l-.174142.013253.006762.041428.059911.097778.085516.018077.069242-.164315-.047288-.006221ZM6.461956,36.901924l-.049633.044358-.033494.099491.016409.016454.056485.010413v-.054952l.050715-.02529.026552-.031556.011766-.038408-.018077-.013434-.060722-.007077ZM42.465578,3.924719l.004057-.072713-.034937-.027228-.135825.113781-.039174.094487.205878-.108326ZM80.865902,30.997985l-.009377.014606-.052743.01393-.10197-.055042.03701.113646.159942.029257.134247-.009827.145201.028265.125817-.003471.012262-.066943-.210882-.100843-.021323.05103-.030248.024072-.038543.007077-.055087-.072263-.011721-.134653-.047514-.058694-.072308-.050309-.114502-.018888.058378.083082-.02813.029392-.045621.023847-.006987.060497.10179.015327.072308.076906ZM6.216092,36.681755l-.018032-.165532-.065636-.012352-.073074.095298-.005184.067349.034666.037551.064689.01979.06257-.042104ZM80.91869,30.577979l-.044854-.131452-.037732-.029978-.012126.032007-.057341.052022.021773.027228.13028.050174ZM36.342418,51.402629l-.081369.005545-.135419.079385-.062435.079746-.012487.069873.038453.145742.030339.067619.049497.025109.137493-.097101.120092-.162647-.000225-.108912-.083938-.104359ZM80.336352,59.107902l.045575.030384.055628.019069.06212-.065681.076184-.184601.007934-.13321-.004418-.200784.020421-.063021-.007889-.066943-.112428.051526-.143128-.023802.03683.247848-.072398.338638.035568.050579ZM80.286584,62.529668l.02813.01695.072172-.017446.067304-.087364.083487-.014966.097823-.230041.012532-.105126-.021638.019024-.059144.088987-.173331.134968-.074652.092053-.076951.047379.044268.055583ZM95.934791,38.010025l-.097868-.03142-.137087-.074967-.009872.033269.003651.067078-.16684.061353-.041834-.014516.02529-.036424.057431-.022179.014696-.063382.035207-.080467.012487-.081684-.024478-.562909-.050669-.347293.069423-.227517.109138-.204842.018212-.117297.030744-.115133-.084795-.015147-.532165-.190461-.208493.053645-.143533.162061-.082856.128477-.475004.26624-.624127.105216-.338503.145246-.435018.096425-.164721.016634-.047288.004824-.305008-.090971-.13587.002885-.17829.040752-.559663.202317-.409097.03665-.318307-.084254-.091827.001037-.233242.099491-.342289.233963-.544697.2405-.139747.015868-.275211-.062886-.305955-.016905-.277149-.05653-.161114.042826-.477708.2066-.526484.285399-.7421.0087-.142992-.055763-.16152-.105712-.407384-.312897-.295542-.336745-.253347-.417212-.260335-.205878-.112383-.088852-.158635-.030158-.175044.002479-.162422.033449-.182753.070009-.091962.017175-.058694-.010098-.023982-.091151.157688.016184.212054-.24077.332146-.120408.298742-.188793.086237-.077266.058108-.086372.039309-.132669-.075012-.238201-.073164-.13028-.223775-.264617-.018888-.064824-.04508-.156201-.111888-.100933-.039354.122797-.231168-.075328-.082315-.207952-.282198-.273453-.164766.011991-.070504-.250147-.135149-.255782-.782807-.533968-.238065-.352522-.404364-.509264-.503043-.166118-.219988-.189605-.117432-.068566-.146418-.041158-.175044-.013614-.134923-.054321-.160078-.186855-.035027-.088311-.022405-.159266-.083623-.07952-.152775-.104765-.067078.076996-.03088.128522.033765.099716.005049.059776-.04517.103593-.086327-.120408-.119506-.324032-.069873-.095028-.096425-.013028-.112383-.34567-.164495-.182662-.101835-.370644-.106703-.729072-.144165-.485958-.163729-.466393-.403102-.79029-.047243-.092954-.321598-.200063-.066447-.092774-.041248.030609-.067214.020556-.098183-.114998-.072172-.10481-.202948-.200424-.256187-.18992-.173827-.031736-.09043-.049002-.080512-.091962-.146373-.373529-.150836-.674075.018933-.289366-.092639-.453546-.007032-.378714.052878-.223685-.073209-.242438-.021097-.225533-.020962-.120317.012667-.169048.089213.036244.053014.052969.007889-.046071-.006086-.049768-.062525-.107154-.174142-.194428-.205653-.361628-.059099-.253302-.015012-.317-.001262-.026507-.054366-.114006-.553622-.413109-.246585-.327233-.42181-.154758-.090159-.064283-.064599-.088086-.132714-.136185-.178064-.454492-.055448-.240094-.024478-.472209.014425-.089258.034125-.109228.07073-.030744.05094-.010954.202543.017671-.212325-.180138-.195916-.12478-.107695-.162016-.270613-.28878-.454718-.937655-.231934-.428166-.152279-.352117-.31452-.472659-.373124-.748411-.120633-.140017-.08804-.571158-.058378-.193482-.063517-.118965-.139251-.104359-.053149-.127981-.143533-.253122.011991-.134517-.015598-.282379-.069603-.109543-.163549-.109273-.226886-.22666-.239147-.336564-.166163-.177073-.055628-.094216-.036064-.104179-.060091-.120768-.167471-.203624-.036064-.093134.00834-.274535-.052112-.202182-.045305-.093225-.223775-.213587-.049993-.140468.065095-.172114.107875-.148357-.021909-.10738.123608-.070504.108642.25497.09913.401253.060271.103999.060046.072398.078529.164676.273678.308299.072488.136907.098093.289366-.002344.118379.061083.184421.224541.256187.237434.193121.221521.298742.379931.314069.233377.092593.131317-.178786.108236-.182392.036605-.129964.025786-.360637.227652-.577064.158996-.740658.149574-.233783.074336-.065501-.045981-.125456-.104945-.360051-.074787-.246811-.10197-.304558-.171934-.370825-.015868-.089393-.037146-.129694-.118649-.338097-.096606-.244422-.110986-.312266-.043772-.123067-.019114-.044448-.029166.027453-.3651.180138-.314791.074021-.38489-.000811-.244827.06798-.050174-.061038-.035793-.061398-.304513.083803-.062751-.009963-.22666.063968-.108371.007709-.094036-.046793-.279088-.227517-.097327-.056936-.045801.001713.035387.069197.052112.066898-.100437.119867-.139747.038363-.048145-.088086-.07623-.098905-.141956-.028806-.174683-.076816.139792-.177659.021728-.100843.245278.202407.079926.005004-.229094-.236217-.100437-.057747-.066222.022179-.310418.103548-.109543-.003651-.440698-.189875-.148086-.023081-.041293.017265-.02813.123293-.038814.065771-.213858.033584-.187982.052833-.183339-.019249.428346-.154623.052518-.06532-.470225.137763-.234549.022585-.068476.080512-.041969.067033-.066673.058919-.052878.085651-.126854.004012-.104224-.01429-.159537.055583-.451066.316188-.217464.122977-.199522.088446-.158635.047288-.117252.006311-.132489-.038678-.221115-.125637-.389533-.157643-.729884-.068746-.183564-.142947-.279854.004778-.106794-.030699-.389443-.242077-.639364-.13569-.415228-.061263-.752288-.159762-.681558.15877-.209034-.030834-.100032-.178019-.047243-.084254-.120137-.251544-.099085-.103593-.096245-.044989-.259568-.046657-.272191.028626-.466934-.018708-.121039-.040932-.187396-.132895-.134427-.046432-.681964-.081324-.240139-.173556.00559-.097417.025695-.074877-.052157-.25222-.231709-.101204-.217058-.078979-.307668-.079115-.243835-.127305-.204346-.056845-.464049.014245-.157463-.050174-.113961.007664-.281702.204706-.141325.031781-.342019.003156-.588424.289095-.334085.220845-.332237.312942-.120768.163504-.076725.160303-.062751.267187.046477.384349.078438.213362.111707.16143.049768.153902.013163.171167-.052653.168102-.131137.238336-.399991.455845-.164631.108732-.397602.183113-.224.031961-.249831-.035387-.355588-.182482-.639319-.527611-.321553-.109002-.1585-.11067-.641888-.225173-.757112-.195059-.440878-.018438-.437317-.054456-.387865-.141505-.168417-.095974-.146914-.153631-.132579-.184601-.109814-.260876-.06798-.201596-.005319-.27769-.122977-.224226-.120498-.117387-.884461-.177163-.119416-.057927-.24902-.193707-.108642-.042194-.427219-.121444-.250147-.010413-.148627-.037687-.337195-.133931-.193932.025605-.512916.142677-.435424-.041518-.196277-.043637-.622008-.348691-.208538-.037371-.203444-.093585-.13871-.063833-.083352.0229-.138439-.035793-.042194-.023216.039309-.033269.050399-.021909-.016679-.033449-.142857-.089799-.087635-.288149-.168823-.094487-.07943.137944-.093766.022044-.140558.006672-.024568-.141865.011811-.118199-.345265.03949-.198756-.098003-.195104-.181626-.146644-.307984-.011991-.125637.033088-.106613.071361-.102466.109408-.098769.446108-.297751.208087-.200694.233783-.309336.119596-.224632.219042-.31132-.102466-.143038-.015643-.179236-.041158-.147681.004824-.124329-.294234-.209169-.126313-.041563-.130866-.132895-.113465-.220079-.038949-.216652.015237-.121174.050264-.104044.155615-.146418.207772-.111888.225443-.380877.11919-.15025.093495-.049768-.066132-.141505-.03088-.161791-.136771.020241-.246946.197178-.259974.077672-.07082.134472-.141234.090835-.158725-.075779.054456-.128071-.193797-.257495.010143-.263175-.145337-.069513-.132489-.009963-.150025.005545.005049.063247.022675.047784-.088176.070865-.061759-.116486.042104-.066177.030609-.083262-.106162-.032638-.094532-.015507-.728216.223324-.110851.05937-.313844.242077-.329397.092278-.599378.041022-.289005.082496-.158545-.03656-.245233-.182527-.233783-.091016-.304287-.050669.045621.189424-.126719.038453-.287968.03656-.469008-.127756-.11919-.126493-.211649.060722-.104945.164676-.245909.113105-.452509.098679-.401253.189424-.172294.041518-.13312-.043592-.267006-.200198-.156787-.082992-.159717-.051842-1.30582.000225-.344724.154307-.730379.016274-.168553.069603-.337601.210702-.334085-.014651-.491277.06505-.956634.073119-.380832.115178-.241221.13294-.367894.144029-.270432.151107-.214083.150611-.138349.246585-.128297.102601-.187937.020782-.215571-.066808-.100437.002524-.655322.292341-.227021.135419-.156967.125592-.173962.19853-.197268.092368-.253302.180814-.319614.133931-.139341.013794-.269215-.028806-.272191-.029031-.284227.016229-.126088-.0339-.144796.01109-.03949-.067529-.075238-.172565-.036875-.04224-.00577-.072398-.019024-.066673-.121219.13587-.190596.117838-.251724.041158-.261236-.024884-.136907-.077898-.126313.052878-.259343.002299-.463508.123473-.397872-.067664-.278637-.112969-.357661-.281432-.196412-.222152-.11333-.197358v-.168553l.079791-.070009-.159446-.041158-.166569.102872-.134157.050083-.16684.019655-.235901.045711-.043682.15832-.527521,1.364514-.536988.964027-.193707.244872-.325024.207096-.557048.283325-.98535.395799-.282333.181265-.111256.096921-.32002.395709-.546319.51517-.004328.128071-.049948.362124-.081233.227336-.436731.552495-.17838.420547-.032908.520173.001217.325204-.057431.188974.028806.107064.107695.060497.160303.226886.038859.138304-.057702.354235-.10188.219628-.145562.216382-.210567.24352-.253528.378218-.381283.45625-.249876.181626-.542984.325294-.290899.270523-.174774.207321-.163413.103503-.57801.259929-.643917.172204-.433125.044494-.207096.092233-.122436.207051-.180363.163549h-.000045l-.066357.196502-.040572.120092-.204932.411847-.021187.072263-.09345.318803-.106703.196186-.160213.131362-.341703.219493-.288464.104404-.192129.168823-.135239.061173v.000045h-.000045l-.075553.128792-.011901.057702-.057702.279989-.053014.082766-.053104.082766-.139702.369743-.034847.060407-.08236.142767-.031961.130145-.032052.130145-.017491.492224-.064374.214173-.179462.24095-.199748.098634-.530361.571249-.087049.057386-.168372.110986-.162061.152369-.035658.072668-.035703.072713-.015643.041654-.021548.057251.00009-.00009-.000045.000135.09088-.080332.076545-.102105.071316-.058784.016544.069287-.022269.060812-.182212.276112-.072217.1782-.155975.277194-.128792.181355.054005.092278-.042781.120994-.136681.154488-.072578.335482-.207637.364018-.226119.082451-.145742.159672-.183519.361493-.096335.665961-.008745.060542-.118875.721138.011405.011811.05937.066537.009827-.070955.053464-.26065.036199-.05094.057612-.053149.069152.03976.196998.387775.141189.237975.079791.041563.03701-.068972.005996-.076816.068341.027273.065906.051842.128071.326962.16445.259613-.040977.119686.010639.193572-.066988.294866-.215345.432584.186179-.054411-.08804.140964-.138034.027003-.052878.039445.05103.105847.227111.180499.123789.20687.083983.391606.086868.270252.050985.408601.021909.458955-.064824.467836-.171438.482442-.185683.363161-.15593.442817-.023622.200559-.072578.227877.000676.609792-.047334.141234-.363702.5978-.405085.50426-.352973.175855-.165127.050219.120858.140152.035433-.097282.096876-.007889.113555.038182.123518.081865.118244.213226.140784.108011.12442.263535.1104.15557.008024.120453.066177-.002209.099536-.040256.065861-.006672-.028671.044674-.125727.062525-.044133.076004.028716.087094.130145.093766.080106.109994.03399.137989.042961.174548.119461.14137.118289.013208.2886-.14146.380832-.015778.37389-.05387.175269.022495.014155.020015-.058378.013118-.19524-.001984-.249155.046838-.242618.022359-.229365.033404-.039354.078078.003787.058603-.115539-.014966-.188974.032457-.190777-.04517-.055899-.072308-.021954-.105847-.072758-.053555-.108101.066943-.09922.113736.073976.259703.007979.113646.007979.113691-.015462.13001.013298.2437-.025921.043321.01393.056169.032097.057882.056665-.023847.038498-.02538.046297-.08502.0536-.040572.06514.069332.125096.052518.016229.020601-.009467.038723-.05085-.001488-.086868-.031015-.165938.060316-.110265.046116-.032773.071722.052022.097958.04544.060362.366768.202678.166073-.052292.090294.007934-.013524.041789-.085516.083758-.012307.123924.071677.098724.181265.081774.239553-.05689.051436.029347.023306.024343-.052022.178786.163233.031105.224947-.07375.183023-.133345.104945-.034847.329036.021819.102105-.057747.044358.001713.008385.029527-.03967.044403-.041879.008926-.103638.048866-.273272-.001127-.068656.038949-.044088.086553-.002209.073344.118604.145787.071136-.010278.057251-.062165.115178-.023577.143984.03381.066312.085651-.121489.02263-.118469.010278-.235406.099896-.067169.11892.040662.027544.066447-.015688.059325.006852.00834.024523-.061489.058513-.008114.091602.009963.065726.100888.087499.072172-.011901.062255.006221-.007213.168102.054727-.004463.112428-.141911.056259-.002524-.052202.17554.067619.095073-.010909.14155.051751.040527.049903.001217.066943-.189695.05076-.031015.065726.007393.082045.041428.024794.09327.085336.162287.021368.069693.111842-.104134.008114.0426-.034982.156922.00541.091016.24361.403823.342109.160258.112203.001848.054997-.018753.020151.034982.010729.090069.089708.105892.179372.109002.088626.02272.054727-.07055.030474-.006446-.01429.102376.055763.100212.002119.183564-.045666.138124.16418-.010188.175991.164586.040977.079746.012622.061894.133616.128026.035252.064058-.044223.123157.013298.038949.02804.082541.157283.119822.125682.022089-.015417.033133-.181265.017671-.02565.103007-.002975.093495.06212.158815.080332-.015823.044494-.049317.179868.014155.065861-.054907.013208.035342-.025109.064374-.108461.073525-.121039.135735-.097282-.023396-.060542-.056079-.077221-.004418-.015372.077221.094712.125276.070369.1617.170942.018257.0852.074156.042375.120227.058964.264662.040121.050579.091917.036785.112474.100257.169905.020376.079701-.070369.040256.000135-.040256.116711.103683.160844-.063968.136591-.006627.074832.185367.05928.556778.210747.261056.126493.247983.188523.053329.05378.287923.290538.382861.174188.207411.122752.084614.206104.103999.068701.14741.063247.238606.057972.189109.119281.829509.742957.372988.368886.323491.247622,1.164541.617004.347789.107875.451111.188388.153451.020556.158545-.032818.259658-.145968.231303-.077988.180138-.124239.103683-.044043.395709-.119867.649146-.253708.197313-.077131.465492-.104314.670739-.054727-.057431-.041834-.214579.003201-.13569.011901.042735-.054727.07082-.024253.345039.008791.071406.074246.093946.012487.317631-.045485.832665-.076455-.033179-.035207-.070865-.006627-.658432.03417.074787-.058423.260785-.02858.316233-.011044.1814.021954.151467.09629.697562.119596.047424-.040031.09922-.231934.050264-.02538.064689.00825-.023036.192986.139657.060181.050805.009512.008971.026236-.090114.003291-.170942-.025109-.042014.044043.176532.03372.042871.00825.15593.048055.322635.043231.432313.112068.176712.07339.235045.146103.117793.002119.30005-.156606.184601-.13339.182482-.075869.583285-.192174.355543-.058513.171077-.121985.245368-.100618.182392-.14155.296353-.089528.515034-.251409.549746-.003201.102646-.000496.267908-.066673.077762-.127801.056395-.116441.073705-.076275.108912-.050579.164586-.07641.416175-.092999.26074-.058333.625119-.089663.559573-.054772.08804-.008655.750981-.028175.126178-.170401.097552-.00843.284993-.088581.046207.018753-.274129.14155-.074922.026822-.052202.040256.047784.024072.85259-.003246.407384.083487.269756.174774.303341.253798.241491.304242.067935.040391.017581.051796.008204.115088.080647.051571.137944-.051571.038814-.070189.029302-.017491-.00275.07916.033359.032773.090385-.001848.051436.01722-.083758.049452-.139747-.003967-.097687.007754-.022134.050624.044268.066132.204616.109002.218591-.09629-.023847.063607-.041293.063427-.08218.017671-.095073.03665-.005094.104224.007799.085381.024343.028175.116982.026462-.031781.036289-.06523-.020872-.026597.017626.086508.243249.060136.142181.080512.140198.045575.114142.281206.253933.143759.09052.085741.065275.141144.063607.129108.017581.042961-.01979.012126-.123698.075148-.061894.005725.080242-.025786.049407.010278.033224.04819.007393.216472-.038859.050534.001623.072804-.012622.033855-.178605.028806.027634.020962.105351.020962.047198.109543-.00293.055854-.001488.137808-.039535-.089708-.12717-.001172-.163909-.00825-.078844-.024478-.096515h.026597l.049452.105486.019294.161655.038318.109363.07384.066943.120182-.008836.188478-.155389.012622-.134337-.103007-.09327-.013839-.040256.089799.042555.083848.095659.103548.085471.234053-.010053.066177-.052698.010549-.067078.017806-.012893.046522.125096.104855.047243.208718.004102.303791-.043953.352793-.002975.046612-.130776-.125637-.333724.025245-.021954.11919.131768.068791.014606.050219.089663.111392.02858.038543-.043953.016138.003426.019565.004147-.050309.194158.008971.045125.046522.060587.109138.013118.044539-.044989-.039084-.160303.063427.033584.072082.087184.060271.008745.065816-.007709.043998.00861.038408.025199-.020601.157463.014335.102646.024613.089708.060046.079385.030744.18424.151738.067033.180409.057341.064329.033088.018077.043186.068521.019429.083983.004553.049002-.026822.051706-.077266-.022765-.086733.037461.007213.051751.042781.066402.002029.092233-.066042.02574.026867-.052878.063788-.012352.057071.128297.11306.004688.036109-.148718-.02272-.047153.073931-.048866.021593.079701.134743.035297.112383.164495-.016003-.124916.114367.272236.302168.051842.092999.044539.212956-.084028.21548-.023802.240725-.061083.259478-.02804.311275-.02813.313078.036469.186494-.117613.18397-.094938.22675-.020692.068972-.063833.033494-.120047.139025-.080242.184105-.064238.208132.079205.024659.086057.007799.119461.079926-.01145.029753-.020601.053915.067349.280711-.000766.195781-.009782.073029-.02254.011676-.05928-.035072-.023577-.085471-.058198-.008114-.220484.071541-.006897.077807.098724.086598.095073.165352.101835.087409.306992.137042.22373-.036289.076094.032998-.251769.091962-.021232.10774-.077852-.05396-.218816-.08475-.141595-.014335-.076049-.053915-.033359-.060226-.013794-.081233-.027904-.04819-.07073.072984.031285.228779.018392.230582-.056575.388225-.213587.294189-.073299.067529-.058243.016454-.05689-.00275-.06514.071677-.166704.026011-.085561-.123834-.072172-.031691.188207.427354.043141.043051.043727.10454.043367.061624.163729.300546.185593.111437.075148-.010864.048686-.017581.02831-.037191.038408-.010458-.088717.207952.020827.044088.046522.02565.088672-.005815.06825-.02822.070369.061308.029662.057251-.15602.047965-.066267.004012-.050444-.007348-.376775-.428166.021999.093044.139611.196908.134563.263084-.01393.070279.023577.060677.102105.00568.188072.086463.016138.053464-.016679.036244-.187125-.090971-.058108.012397.095479.095388.04233.069738.174638.180589.054456.087635.022675.083713.044809.098003.069017.064329.123067-.003336.122932.039039.131046.062706.137267.079611-.03674.034035-.043367.01695-.317811-.151828-.055448-.008295.049858.067574.328991.304603.455484.351035.317135.351305.07375.159176.277149.216607.131677.133706.11306.218005.130866.119236.312447.284272.039219.092548.365731.310553.145968.174593.004463.14705.027228.037957.025876.066763.096786.146418.098093.117793.04792.03665.020872.029572.028761.041022.094171.215165.088807.169544.039219.190642-.035297.09354-.032818.124961.058108.131903.019474.035523.035703.064689.099491.116936.128973.120994.054952.018843.08218.004959.221521-.057657.147996-.11049.092323-.03142.19001-.023892.086508.038182-.077898.056845-.292251.128026-.316233.055809-.230943.05103-.103818.011044-.025605.042194.06798.083803.09052.220935.15886.315151.403011.485056.051796.368886.304783.730515.383717.786188-.016138.132759.002209.114142.013659.093315-.025786.083442-.407024.426768-.009602-.042285.040842-.054636.020737-.046161-.061308.030113-.064374.091827v.076184l.103277.243565.106298.212866.054952.215255.016634.203985.104224.165217.05964.230357.217644.34558.058739.219042.125411.122707.117252.162512.023441.165532.126178.231303.018528.167245-.084254.581797.001397.436235-.133075.418023-.116846.218275-.241356.315196-.339134.177298-.239418.166344-.114051.339585-.463058.552901-.062345.428752-.166479.383086-.131272.809404-.276383.827526-.076184.360096-.064374.163368-.09061.116576-.066988.065906-.131768.086372.024749.113375.03674.096606.030564.704594-.001262.272145-.051842.227922-.049407.51562-.02849.297165.015733.388451.05653.343146.234053.368075.119822.274445.072713.09629.310734.288419.1727.241221.77875,1.516432.168372.215931.154758.468738.221656.543525.518505.771717.065005.185277.113555.223595.464951.587748.187982.361178.084254.353604-.008069.143353-.032322.162377-.048551-.018483-.027769-.038588-.046883.122301.027363.154578.066673.283415-.001848.273813.032593.233016-.017987.572105.024208.213046.168553.487175.186765.338232.092233.346121-.024749.301222.005364.158725.054772.247712-.024568.272145.114728.329802.048731.511248.171753.153226.05671.117027.032277.131272-.052743.096425.012081.170671.11058.296038.095839.399856.071947.159492.503494.830186.22923.268178.154984.113826.437362.438624.150025.116756h.000045l.044268.034531.345039.530767.280756.569896.318893,1.010594.210747.502367.440563.83857.348285.533427.30023.39927.062931.128342.13321.559393.02556.216833-.006176.347744-.099265.217599-.167876.143533-.117973.038498-.095073-.098499-.09327.06203-.058964.113961.036154.198666.106974.125862.04553.157283.109679.081639.108777.225082.139882.09354.064329.138079.164766.302078.03124.118154.01145.136231-.1475.076545-.02804.201911.024929.170852.077672.160258.068386.076771.000676-.267592.051075-.087905.044674-.034847.095028-.012893.138079-.008159.057927.016048.075553.038227.023486.120092.005725.097868-.007438.063743.00834.101159.09363-.005094.067484-.02529.194924.009512.0678.100032.12735-.006852.046342.037055.068521.082992-.010008.117568-.033359.066357.124375-.01402.324708.221656.286796.005004.101745.027138.125772.016544.55227-.415994.126989-.06825.326647-.034621.143533-.080061.143263-.028535.093811-.004192.251724.063472.134563.001713.271289-.052608.314385-.000631.60889-.454132.225353-.0229.185818-.065365.242393.000316.253437.07907.456927.026867.109679-.018257.313574-.125186.149799.011405.647027.102691.550196.168913.308885-.008295.10463-.163278.129829-.128657.222468-.019249.410134.100618.129333.010819.085291-.036154.019024-.241221.204616-.167741.244962-.038453.586756.071947.245684-.077807.618492-.277375.381869-.239057.531263-.392959.131452-.062435.471307-.421945.313934-.214038.542172-.488122.36262-.429158.473516-.483163.336429-.300005.126899-.068386.187892-.149213.423433-.515395.244872-.373484.25515-.409007.285489-.528558.194338-.247442.195465-.449939.220394-.308119.590903-.637651.151107-.036109.085155-.040887.095884-.063833.344724-.314475.119326-.177523.212821-.429518.163053-.850066.06514-.237299.191047-.516702.049362-.329487.004012-.026913.059235-.823153.028445-.239778-.051346.004733-.029843.061038-.060271.196367-.059911-.037867-.045756-.054546-.088131-.063337-.074787-.094442-.076049-.124825.087229-.145246.088987-.114682.092864-.250327.225308-.21796.51526-.324708.24352-.10188.408105-.170852,1.028626-.34824.513186-.240725.218546-.153857.131948-.156516.244331-.364514.068746-.148582.069828-.338638-.026056-.055358-.049497-.000676-.031015.09345-.084344-.018753-.037957-.055358.008745-.126899.156697-.732318.107966-.310553-.092864-.266916-.020737-.159672.069062-.392192-.002344-.103052-.013569-.075869-.033584-.080873-.014876-.091106-.049858-.012217-.049993.085967-.023982.193031.009241.120362-.033088.072578-.089708-.080467.013118-.190281.004959-.310508-.075148-.383447-.007032-.153902-.186224-.355047-.013975-.277555-.180363-.538926-.140423-.187441-.149754-.150566-.079565-.122887-.009286-.094893.069152-.43308-.006627-.222603.014335-.148222-.056395-.075508-.085426-.090745.095433.011315.175179.15291.051346.001758.076049-.012532.556778-.439165.381373-.454132.269982-.234324.168507-.111121.193301-.09629.077627.03985.069964-.013839.036334-.194563.085832.100933.10197-.032142.011315-.105396.114502-.160799.056169-.079025.288059-.28905.191318-.244331.026191-.066988.026822-.118604.080242-.080061.068115-.035162.258667-.231664.35712-.231348.436325-.242573.278457-.098048.051571-.06203.077402-.045305.31452-.099175.33679-.125276.048821-.038227.057882-.006266.059099.012893.169589-.018483.095073-.050489.171122-.043321.129829-.178425.080783-.067349.510932-.290538.185593-.151467.106839-.044223-.071631-.192084.091782-.058243.165172-.035703.154217-.217825.012893-.054456-.000135-.062525.132309-.152504.141234-.140107.326872-.394446.122707-.288329.00284-.092593-.047153-.104585.032547-.044854.069558-.023306-.009241-.072713.017716-.110851.100437-.118289.078934-.069062.012487-.098634-.031916-.113285.008475-.089258-.01979-.04535.008069-.091962-.057567-.062616-.064464-.000811-.10747.159627-.014065-.117477.00586-.083578.097552-.134517.003381-.102962-.088176-.021097-.062616-.042555-.009151-.060181-.006897-.375378-.040887-.303431-.002209-.119912-.017446-.092503.050399-.119912-.041293-.108236.023441-.094802-.006762-.145878.011721-.077492-.005996-.098499-.175991-.002074-.002164-.063562.016634-.041969.140919-.108011.025019-.089167.011721-.165397-.043367-.146734-.081684-.046252.048055-.133751-.018573-.10747-.010323-.260154.040121-.154398-.02813-.086237-.02254-.129018-.080602-.251319.042735-.279133-.083127-.157553.024253-.089122.093901-.11635.07082-.151963-.023577-.05396-.027453-.036154.013118-.092278.108146-.132624-.147455-.08786.091286-.065591.075553-.073254-.126719-.126133-.070865-.138034-.014696-.028626-.022675-.043817-.06239-.076004-.230402-.151107-.104179-.050895-.072308-.061579-.133481.003922-.05121-.090024-.108597-.094126-.184826-.028761.078123-.114998-.011991-.103593-.06248-.150205-.041699-.195736-.094938-.225894.021097-.289952-.253437-.333273.038453-.049452.011044-.058919-.148086-.188252-.097823-.369653.006627-.123879.041428-.14421.134653-.308525-.01677-.264978-.130641-.088086-.057972.054682.001938-.359555.086237-.235135.107064-.178921.114457-.1104.035838-.133255-.098319-.193617-.246811-.08475-.078529-.172565-.137267-.172024-.077537-.075373-.114592-.058874-.143263-.164721-.025019-.168057-.067439-.179191.019384-.255917.122436-.334491.089618-.142767.106794-.381328.03958-.087815.041068-.132804.005951-.112879.104855-.270883.026597-.111662.00843-.035613.079205-.075644.119281.02245.152008-.19524.194969-.432088.027904-.044764.038498-.068025.059685-.098995.018888-.050534.020827-.055854.076951-.168553.055763-.2776.047153-.054276.05405-.123834.073209-.12176.164991-.132759.01695-.102421.088807-.204346-.019925-.265429.056936-.173241.074742-.07925.168012-.096696.319614-.021503.225488-.194969.009241-.074291.104179-.087995.032187-.100978-.022044-.074562-.021458-.151017.035793.025109.047424.017852.024749-.08502.033088-.054591.084254.032593.064193.009467.214263-.049452.159266-.103413.194473-.227517.132444-.154758.133616-.196682.152008-.30032.056124-.070009.050715-.125907.071451-.109318.168553-.154893.150295-.156516.240725-.301988.088311-.07091.126854-.178921.097913-.09363.103954-.099536,1.007664-1.056215.333318-.312988.420277-.32863.400126-.377677.783528-.555516,1.208403-.662264.29996-.219087,1.103819-1.074607.84371-.905514.618672-.701754.344994-.604968.553532-.719605.533878-.902944.057837-.3115.18974-.491638.151467-.283776.295407-.408015.134923-.229906.120092-.253122.121129-.403913.334445-.316369.243971-.413064.047243-.147005.144886-.301267.277645-.352613.062931-.176171.186494-.249966.010413-.377451.054591-.28585.032953-.440247.042194-.110355.141189-.066447.230492-.061489.079205.037416.155254.022269.007528-.048325-.02813-.070504ZM73.834208,52.331043l-.126448.037777-.169094.006311-.131677.03133-.026011.020692.022359.126403-.024974.040752-.042104.009331-.065501-.057476-.062886.000766-.070865-.018979-.077627-.004688-.05653.037912-.12735.144931-.02565.086643.010909.105847.049993.097147.076094.107425-.025019.080332-.030339.046207-.06825.030158-.009241.047965-.009737.01136-.165713.192805-.038543.078438.00559.041248.059776.05671-.013028.024704-.131272.003381-.02006.02804.00027.035613-.017581.020556.008204.025109.124916.093315.007438.024794-.042375-.001397-.131542-.036109-.080377-.007077-.059595.010594-.023622.023802-.029302.085922.02813.043862.010954.045666-.098228.069377-.011811.09318-.061759.050985-.076996.029888-.116035-.013839-.047649.024208-.046342.045711-.044448.076049.203444-.008791.036199.016679.017716.033133.039715.035613.004598.022134-.149033.001443-.050805.046297-.098724-.012171-.090114.064058-.008295.032277.066132.037236.321688.050354.089889.007393.224271-.074562.055493.015913.020331.044764-.000811.046477-.055628.060722-.231258.158455-.111392.095929-.104044.039309.013253.056845-.006491.025876-.029031.012307-.274039-.056169-.190687-.104089-.091151-.011405-.071902.024884-.049362.038318-.020872.046071-.010774.238471.084389.204391.020286.040301-.094036.017491-.149754.145246-.026326.017897.017716-.098814-.011991-.057341.110851-.092458.019159-.053104-.063833-.146418.013524-.136952-.017942-.037822-.079205-.001803-.064824-.015913-.023216-.014245-.018618-.046702-.037146-.022405-.127215.091376-.017085-.018122v-.042194l-.018753-.011495-.108597-.012217-.064374-.028986-.046207-.037822-.049858-.119326-.048596-.02849-.057206.000766-.039445.035252-.049362.074787-.078934.014651-.024208.022495.059009.122076.013118.051526-.026822.015958-.132714-.027589-.059505.040391-.023306.081684.013659.09088.032683.105757-.043908-.006582-.070459-.103052-.026191.008791-.017581.026326-.048776.006266-.039129.123022-.023306-.009602-.023306-.054096-.003156-.075238.044448-.095794-.060316-.031556-.035928-.040527-.009918-.048821.067439-.085155-.006221-.034351-.019429-.054096-.037055-.055763-.049542-.038182-.035658-.067574.000361-.261326-.015372-.084164.000676-.111662.132038-.583375.063337-.096921.020196-.078934.052337-.35401-.00586-.063788-.015598-.035974-.026867-.004824-.032683.011676-.028896-.015507-.002164-.010504-.018077-.08786-.015868-.063652-.031511-.066853-.012262-.062525.127124-.293558.065005-.116035.169725-.211649.0087-.087725-.033359-.057296-.047243-.041428-.009016-.029076.022269-.035072.109814-.054907.030339-.044989.138845-.022224.066447-.064193.065095.018122.038182-.03381.085967.007934.043727-.068296.03949-.030789.032277-.004553.015147.048731.049497.004328.062345-.02254.041834-.038633.03124-.125006.03674-.055358.04242-.023532.044809.083938.041022.013344-.046748.056079-.007303.026236.027769.012262.057476-.000451.05946-.01393.097597-.066898.034756.000676.022269.074787.026326.022359.057296-.016319.084389-.051346.06487-.06203.008745-.060407.080963-.017401.0852-.179777-.018347-.053419.077086-.030474.03674-.015057.051977.014651.069918-.027228.004914.02556-.047604.111347.028896.02574.143533.020151.030609.02529.000766.028671-.058063.029888.00843.035072.047379.034666.065951.015192.063562-.020556.07943-.103773.05405-.020827.043412.010413.020511.103458.021683.029888.155074.029617.112023-.042781.038949.005545.000631.00009-.001172.165127.011225.084885.027859.064734.034396.050715.040617.024118.074742-.001578.013344.015237-.023622.056169.012893.03985.144615.126764.078754.120723.033765.007618.032052-.024839.02574-.031195.022179-.09327.066177-.06248.158094-.069468.239373-.068927.127665.2437-.020196.027453ZM71.596232,54.603279l-.030609-.060812-.093134.010594-.074336-.000225-.030654-.094893-.085832.003742-.072533.043772.022946.054862.005725.108191.063021.032232.120092.026687.09363.039715.08777.030293.066853.001938.010819-.057341-.056665-.06212-.027093-.076635ZM71.734536,51.571767l-.003877.057431-.003922.057567-.050174.019159.005229.033765.106658.00843.011585.030654.088581.0536-.018979-.081594-.010864-.056395.07375-.042104.021593-.074652-.094397-.033855-.125186.027994ZM85.228434,67.064314l-.056665.008159-.024478.02245-.032818.054907-.039219.429293.102241.123879.069558.018077.12176.076635.02538-.017806.03426-.052653-.058468-.14723-.091016-.185818.018077-.275977-.068611-.053915ZM5.50158,25.620712l.085651-.133886.03958-.220259-.066177.023351-.035883.065275-.075779.126223.014696.088176.037912.05112ZM79.762895,60.262255l.092323.005455.093225.114142.054727-.02272.031646.095614.044809.045215.037641-.00275.072037-.032457.013118-.053014-.10206-.28301-.01145-.011135-.072849-.067574-.086733-.218411-.014696-.185638-.064374-.11901-.055989.174323-.099536.103593.018528.202272-.031916.118875.081549.136231ZM41.990755,5.213499l-.235766.006627-.015102.049317-.015778.174052.046657.032007.036965-.000316.096921.045485.034125-.004463.064464-.040662.035027-.006897.047288-.035613.05937-.058333-.005319-.029753-.021007-.027363-.127846-.104089ZM94.526865,71.875252l-.104179-.277375-.041022-.294505-.041022-.641302-.133931-.624352-.141685-.415093-.03958-.266871-.081414-.133706-.095298-.125772-.223009-.326692-.071541-.135104-.061173-.140738-.077988-.112609-.154488-.150836-.04508-.064058-.024072-.087094-.06487-.058784-.075283-.000766-.228463.317676-.13871.165803-.042826.026101-.127665-.024794-.023441.041473.090024.187441.053915.15016.033584.158094-.012126.13037-.151828.447009-.233512.213767-.153316.057702-.135194.09345-.089844.13587-.109949.108912-.090926-.017265-.134923-.113375-.061489-.035478-.077357.024794-.054411.064464-.060091.092143-.016544.103773.023712.068431.125547.138169-.016409.032953-.034982.026281-.002389.08511-.242528.409187.05094.236623.203579.17288-.125051-.036605-.128522-.011901-.077357.059099-.061353.085155-.103277.163864-.09052.173331-.061849.023306-.065546-.018528.01722-.095794.042555-.071857.029843-.072578-.015102-.073164-.027093-.069152-.03426-.013479-.11617.08502-.044313.075373-.05103.163774-.110445.137357-.140152.143804.001578.060903.018077.066177.037146.078303-.002389.081639-.04553.098273-.051571.030113-.044178-.00559.006491-.040166-.052067-.243475-.068025-.032683-.080332.01429-.276518.20651-.266195.17865-.120002.117568-.071586.154262-.007032.071992.020196.063427.133751.112113-.055989.039039-.064103-.008745-.049993-.018483-.164766-.214263-.044043-.011676-.204346.05955-.157824.024433-.247757.018573-.051571.03408-.027994.060136-.021097.0852-.035297.063607-.075283-.011315-.073976.002119-.192264.069152-.053149-.035703-.041383-.06541-.064599-.016048-.074787.043908-.163413.152685-.118965.07916-.061173.028806-.476581.040842-.100933.017356-.044944.036019-.020556.061669-.012126.166389.023712.28621-.019159.11058-.589461.939909-.047829.259388.066718.148898.026822.156111-.009377.175855.044539.486769.091692.29482.093225.157824.072578.167561.016815.168237-.015643.232791.006356.058513.197088.313438.083082.172835.005455.168192-.027589.169905-.03674.341613-.031511.15602-.043908.152324-.14466.323446-.163368.229996-.072127.152369-.202633.290042-.074021.292386-.073976.14182-.128792.105081-.160754.051346-.108371.089438-.085426.402966-.036334.069242-.054411.058108-.036109.072443-.01393.084479-.055583.11315-.031916.162512-.012667.316233.010278.149439.086372.430104.037236.138124.053825.133436.228914.271379.060181.150701.030654.165667.081504.160168.03142.152459-.076725.141009-.024884.156606.021368.333138-.007032.182122.017581.269305.023306.081098.218816.254114.077357.144074.045575.205969.061489.108281.024613.096786.036109.089889.057026.040797.237434.13037.119686.154353.081143.038498.089483.025154.296038.040436.156156.048731.403237.295677.120723.038859.403102-.010368.128837-.048821.116801-.085291.305054-.179913.317135-.156922.304107-.081414.31416-.003336.14173-.028986.279629-.142947.129063-.098454.189875-.270658.127395-.314205.051796-.170671.029212-.176802.051932-.139431.07348-.131137.173872-.352026.040932-.166028.020556-.17288.180499-.560024.086192-.338367.072353-.341207.066763-.392778.034801-.100212.321958-.767029.233242-.686292.157102-.622414.184691-.612181.135058-.34567.11892-.350674.160844-.582609.189379-.565298.191047-.449759.12478-.340666.08804-.284813.153271-.599558.021097-.313258-.075373-.441149.016274-.144796.120362-.28346.074246-.138845.055583-.052157.137132-.05928.036605-.046702-.038182-.077357-.006086-.075463.103187-.136231.036965-.15868-.010684-.313934-.060181-.131677-.058243-.05112-.039309-.060812-.00311-.201055-.017852-.159582-.040121-.157238-.022765-.174774.019249-.061669.105892-.097778.146103-.013659.052382.024794.04535.157238.125141.309922.098724.131632.120723.080467.032052.003561.071091-.080016.038949-.058558.150836-.31159.104179-.330478-.055222-.320516-.170491-.288013ZM86.780164,68.391998l.028355-.044403.000676-.139882-.067214-.185502-.032728-.013659-.052292.028986-.007438.036514-.037281.061173-.059505.010008-.056259-.01118-.09629.008926.209845.108777.11031.111482.059821.028761ZM85.918602,68.407776l-.093811-.08236-.112519-.068701-.097282-.011946.002074.054636.041022.074201.260515.03417ZM70.360601,52.378376l-.019159-.02858.003922-.099626-.046387-.003877-.08191-.001262-.028355.030384.021458.047604.03115.042194.034486.019114.104224.034576-.003787.045891-.052247.059144-.028896.05964-.016274.050805.186089-.070099.034666-.107154.0284-.071631-.066988-.06248-.100392.055358ZM93.916307,74.588818l-.042194.209124.14989-.250417.115539-.28301-.049497.023261-.173737.301041ZM70.06835,54.940294l-.099536.024613-.032367-.026281-.047063-.064599-.029437-.031826-.036605.056304-.010774.114953.079836.079971.007664.097237.068746-.015282.023486-.093585.064734-.008791.095343-.019429.022269-.030158.007799-.083487-.020737-.030158-.09336.030519ZM91.853375,69.525569l-.052202.008565-.018798.069377-.085967.005274.027634.169003.175585.020421-.001848-.049317.011856-.073209-.056259-.150115ZM87.652093,68.871735l-.032007-.005094-.05653-.075598-.066447.064915.068025.114322-.007032.065861-.025154.081549.024388.08475.03985.035658.083578-.01109-.001172-.076139.038994-.097327-.00577-.031871.025154-.097192-.085877-.052743Z" fill="#000000"/></g>


</g><text id="svgAttribution" x="5" y="355" font-size="6px" fill="#000000" text-anchor="start" dominant-baseline="baseline">© FreeSVGMaps.com</text></svg>