<svg id="mapSVG" xmlns="http://www.w3.org/2000/svg" version="1.1" xmlns:xlink="http://www.w3.org/1999/xlink" xmlns:ev="http://www.w3.org/2001/xml-events" style="overflow: hidden; " width="360" height="360" viewBox="0 0 360 360"><g id="viewport-20260421170435700" class="svg-pan-zoom_viewport" transform="matrix(3.5999999046325684,0,0,3.5999999046325684,0.00000476837158203125,0.00000476837158203125)" style="transform: matrix(3.6, 0, 0, 3.6, 0.00000476837, 0.00000476837);">
<!-- © Copyright FreeSVGMaps.com, Striped Candy LLC All rights reserved -->
  
  <g id="mapGroup"><path id="mapPath" d="M49.048562,36.934188l-.017011.06219.020829.021169.103297.029314.017648-.098504-.033428-.016969-.091334.0028ZM49.41356,34.2569l-.055021.030883-.051882.092013.097698.056251.005006.033131-.007594.058797-.043355.108642.097825.096213-.02172-.089722.039877-.207782-.027871-.057991.001485-.129387-.034447.008951ZM48.592909,35.763513l.175711.00823.128114.031901.165191-.002206.048064.009842-.005303.050652.062784-.044501.005769-.032792-.018241-.074832-.006321-.087092-.113521-.119205-.0529-.016926-.097231.030204-.176433-.103043-.037077-.00123-.077335.018029-.007297.033556.00403.060791.092607.127266-.016502.032198-.074111.079159ZM60.815883,35.083703l.097782.049464.018878.049973.009842.006872.030162-.010436.08968.026259.045222-.051415-.110636-.099564-.082638-.06762-.034913.0028-.072202-.017648-.090231.048319.011369.058797.087686.0042ZM46.175031,30.973065l.144362.031732.118442.045858.110891.0613.365846.25101.034574.013278.183347-.060239.137659-.001739.126375.058415.144828.170409.06796.036907.122684.013066.126375-.009884.42651-.004539.298056-.016502.05676-.015993.143725-.094601.147713-.048022.067493-.043779.062063-.053876.139271-.055233.154628-.015314.058882-.02295.174778-.096043.127902-.101134.114539-.114709.041022-.055318.031732-.060706.00123-.079626.042252-.048234.225727-.010987.213934.026641.129302-.045094.136302-.088153.082765-.126629-.08302-.137447-.104018-.122599-.012896-.093243.037119-.088238.192468-.01332.061597-.017478.052603-.030586.117466-.165615.061257-.113606.004454-.127393-.034447-.086244-.015739-.086753.052858-.187462-.133417-.025029-.128157-.044373-.100455-.09108-.187844.130872-.065202-.025283-.063845-.044882-.057015-.054767-.145083-.021211-.138889.000976-.04081.05816-.020447.064736.009672.057821.141477.364192.01786.154925-.009672.152804-.123787.067748-.166548-.00823-.073941.012939-.068257.023799-.236884.190644-.086583.114539-.058457.145295-.087007.128793-.066051.029314-.072457.008187-.07305.021465-.062572.049464-.136471.013066-.133502-.07585-.144319.016078-.132653.078226-.145125-.015017-.096425-.118357-.042464-.149325.011411-.153907.034107-.063039.077378-.081747-.060366-.065542-.040428-.007975-.056167.028635-.041913.131041-.061639.385318-.164851.095492-.188735-.000721-.061894-.00946-.196201.071608-.146271.013405-.142495-.01366-.152295-.062996-.156579-.04764-.270736.033853-.074281-.022993-.073432-.008272-.062742.025962-.063887.000636-.166803-.045179-.109576.091462-.009418.155731.080262.119545.136302.050482ZM49.6213,36.13865l-.076953.028762-.088959.094049-.053324-.000127-.04624-.046579.009206-.055573-.237393-.171893-.057312-.083698-.050949-.03381.017054.082129.089934.128199.043652.115684.07076.038265.008484.118569.271415.083486.069487.045179.082341-.299711-.051203-.042931ZM43.743578,26.483727l.079032-.046325.079965.011666.06113-.04221.224072.050185.17253-.00246.098292-.02558.080559.019132.119248-.114157.044119-.030416.061427.005685.066051-.014466.007594-.059221-.024774-.021126-.007042.008103.004751.028974-.027574.000976-.41794-.080941-.264161-.014508-.121751.036398-.130362-.004582-.075723.053452.013957.106776-.093625.029483-.001358.034828.018963.06796.032622.002376ZM45.340126,26.639966l.040683-.065669-.051585-.045307-.029738.019132-.027532.054173-.068596.012472.041913.019599.094855.0056ZM45.277469,30.581596l-.015187.037628-.001824.131041.117297.152549.117297.049252.021932.056803.050652-.009545.04344-.077208.019641-.143174-.026726-.048361-.261446-.150937-.065075.001951ZM48.306815,35.237397l-.092055.066942-.031604.128708.204643.174142.07339.022865.01769-.031095.02855-.122472-.013999-.059688-.046282-.106733-.140332-.072669ZM51.804287,35.142372l.000382-.028847-.053155-.047385-.060069-.032538-.069402-.024774-.049846-.072075-.151616.009375-.07322-.019175-.06762.013363-.077717.050058.154331.061003.087941.085098.014975.050821.049421.013363.13558.059348.06936-.026811.055361.007509-.009545-.050694.032241-.022526.012599-.025114ZM50.498542,27.307093l.020702.031901.108176.12332.039113.003648.013533-.062954-.030968-.036101-.125399-.090868-.025156.031053ZM44.444642,30.204592l-.145931.083232-.011157.062063.029059.044161.114412.118824.070378-.00683.05727-.063039-.019514-.162476-.094516-.075935ZM51.366536,27.744675l.030629-.109576-.039961-.113054-.086413.024605-.033471.041319.052476.092607.076741.064099ZM52.638005,28.840898l.004709-.072541-.029186.004369-.060621.064015.073602.033768.011496-.02961ZM47.657464,25.68611l.090656.022738.002842-.045052-.050312-.152549-.115854-.08565-.06533-.010902-.041616.067917-.002376.079753.157088.130405.024902-.00666ZM52.114222,55.462199l-.018114.110551-.047979.086032-.189753.163112.028423.145168-.011539.069233-.065924.125399-.028083.13715.037968.236714.056548.065924.031986-.036737.007975-.09108.072329-.226236.26204-.598488.011369-.113479-.076953-.082977-.019896-.234932-.031604-.012472-.042422.014126-.0529.033556-.046706.06639.053452.023629.069784.119418ZM48.099881,26.860475l.072966.112333.080517.07199.090062.018963.249907-.017011.011921-.036822.006872-.113818-.001951-.034659-.02575-.053494-.253937-.107582-.156452.025962-.176814.085904.029568.022017.073093.026217ZM50.501851,27.256781l.067875-.026217-.011793-.089044-.069699-.03644-.020829.052391.004539.099564.029907-.000255ZM48.981748,27.142878l.127732.051034.150852.000127.123957.061257.424558.259452.075256.080432.14241.065033.269379.230096.108727.077674.116915.06656.063124.019132.141944.022908.070166.023374.109406.095619.095831.106988.304547.407844.087559.171087.035889.187547-.004285.092352-.019599.091504.003691.086456.074366.171681.058457.079414.074153.077632.057863.088577.093031-.095067.072032-.11246.028083-.112418-.00157-.124932.084292-.105715.026386-.049082-.010436-.124975-.134817-.183178-.798634-.653933-.063972-.076062-.188353-.138083-.143556-.162815-.040343-.035592-.283378-.097995-.147162-.124763-.130659-.087135-.138465-.075553-.201674-.083826-.110764-.006236-.065075-.101346-.225133-.125781-.213212-.143853.022102.088068-.020744.086498-.100879.032453ZM50.406699,14.44516l.039113-.027362-.002588-.00789-.036016-.008696-.020744.001188-.006745.01103-.005048.032071.010436.006321.021593-.00666ZM50.102958,14.569329l.010393-.016545.003479-.020872-.009078-.020575-.017266-.013999-.029907.002121-.016035.011878.018708.004836-.004412.022781-.036653.007424-.006745.007254.010818.009333.076699.006363ZM49.566576,53.596654l-.039283.004115-.042931-.033471-.108685-.039919-.033428.091801.189329.277906.067875.046282.029186-.017817.043016-.055445-.026938-.068426-.0571-.097061.014211-.086032-.035253-.021932ZM39.519547,34.253718l.058966.08302.088195.034234.174057.125908.182541.075426-.022441-.054936-.184493-.143725-.188608-.058033-.108218-.061894ZM38.245066,37.196355l.104655-.07216-.096425-.142241-.083953.0613-.006957.035125.014678.08005.068002.037925ZM39.996454,34.326939l.007212-.027405-.013999-.086668-.066814-.015526-.258901-.013745.056421.061894.221273.085226.054809-.003776ZM42.965349,29.660871l.084038-.036992.042761-.107497-.020066-.083698-.052221-.042295-.046452.018793-.073517.062318-.020872.079074.025623.081874.060706.028423ZM46.704499,49.090051l-.031604.042889-.02452.054045.033344.013957.027701-.005685.026005-.019853.014551-.117297-.045476.031944ZM34.815978,45.191395l-.063972.053239.016926.052688.047046-.021932.140162-.025835-.013575-.067324-.08442-.066178-.042167.075341ZM33.163688,11.847541l.049973-.0084.038943-.050143-.034744-.057991-.048828.012218-.037713.041998-.039961.069996-.029059.061427.006533.033598.094855-.102703ZM38.215201,36.430088l.030629-.086668-.054173-.04221-.064227.088195.055658.074875.032113-.034192ZM46.815304,49.393579l.029865-.014381.001951-.018157-.051288-.072838-.029271-.08828-.052943.169136.060875.023502.04081.001018ZM34.539727,44.767346l.055106.001018.08951-.029314.046664-.061469.04904.015908.096934-.1128.065118-.055785.173293-.018708-.117042-.143131-.020829-.010266-.161967.055445-.208164.036907-.080686.077208-.082808.126035-.018878.1128.014975.035719.099734-.029568ZM38.43028,36.478067l-.050482-.065202-.100413.011327-.029653.062869.026514.045773.079286.023374.074747-.078141ZM43.337771,46.705347l-.022908.020023-.055445.017732-.110297-.004412.021847.052391.094261.090953.055658.113394.079286.043864.03538-.046622.01875-.062657-.05413-.095492-.02575-.12226-.036653-.006915ZM47.88896,51.705148l-.007339.100031.030289.095492.043525-.039537-.000509-.057312-.019599-.131762-.046367.033089ZM42.549402,4.988135l.05184-.06499-.018708-.113479-.028295-.000848-.047894.037416.006151.040767.036907.101134ZM42.596236,3.178417l.040089.004709.027447-.008951.009333-.026471-.030162-.025453-.080899.002121.006236.033895.027956.02015ZM42.628816,4.725967l.017563.014763.063972.008018.003479-.033047.038095-.052943.007848-.061257.041743-.054555-.044585.010818-.091801.053112-.036313.115091ZM42.818569.864685l-.035168-.046282-.022781.022229-.075511.126884.060833-.028338.072626-.074493ZM42.621095.105376l.03801-.048149-.002164-.036143-.020744-.014381-.056039-.006703.008824.069954.032113.035422ZM48.653699,51.959212l-.027998.052221.032792.022271.03538-.0028.040301-.02049-.034277-.103085-.041404-.023035-.004794.074917ZM36.718642,32.349952v.209437l.00017.254786.000127.254913.000127.254913.000085.254913v.255125l.000085.255168.000127.255252.000127.255252.00017.255422v.255549l.000255.016587.19705.12892.105164-.008569.096213-.058245.140544-.021975.141986.049591.12909.026641.132696.001654.315704-.018199.314643-.035507.079286.016375.129938.045391.04887.022611.126163.083359.13978.030841.266155-.15747.274936-.138423.186487-.071099.174905-.094134.026726-.066433.005897-.133587-.01875-.049803-.08845-.127266-.105206-.111485-.139441-.122642-.058966-.024265-.064227-.014254-.270779-.124042-.278542-.011751-.127011.042379-.105164-.071226-.03818-.078693-.044543-.064821-.148392-.003182.086625-.027489.089807-.00806.03644.050864.02855.058585.060663.077208.096086.006872.114115-.042889.117424-.019132.125145.019132.121878.033853.237817-.004073.23489-.059433.210752-.030162.205534-.049549-.039834-.110042-.049973-.104867-.030162-.035677.041913-.020108.14241.013617.143428.041064.067875.001103.068469-.014339-.059348-.09511.064693.012472.062869-.009545-.251265-.494682-.109491-.112163.085947.047513.070039.065033.069063.082511.080389.072626.094643.040301.212406.064312.103594.009672.056209-.06359.070293-.047003.032198-.01226.064693.020829.034956-.00526.02312-.101897.075553-.038561.110509.027023.108515.044967.111782.022187.113945-.013702.026471.127902.04467.054045.066433.031986.136174.03258.140544.01629.116957.02575.226236.085862.120012.017223.207443.010818.054088.01752.049167.033089.278924.104867.056845.047428.03801.068172.042931.052433.051627.045349.083444.122472.057609.140162.200019.236078.085692.133332.133926.253174.082511.093243.200359.078311.071566.005048.063421-.040386-.041955.118612-.006236.117254.115218.176984.059306.047979.294238.193147.13732.119715.110679.145634.071057.153567.076868.059603.068384.067154.125272.07182.152464.021762.20231.051543.062657-.004794.061766-.021635.148477.026302.143853.072075.059221.007509.201631-.016375.079032-.026556.073644.012048.156622.084547.124423.026683.521874.043567.240617.061384.13435-.001188.128963.019514.101219.057694.142156.105673.04204.044204.044246.074959.15764.054894.2228.043101.132865-.007975.071141-.014636.170069-.099988.036653-.050015-.052349-.042719-.146355-.073475-.098631-.109067.044967-.040216.239387.038646.068384-.025326.198534-.103128-.229036.026556-.160864-.063463-.219364-.02155-.100625-.033683-.097443-.047046-.147671-.047216-.15187-.034404-.060791-.024138-.056124-.036016-.066687-.099225-.073093-.082511-.002291-.079032.129429-.044416.080177-.01226.070802-.02995.033089-.061512-.047003-.034531-.135495-.038561-.137871-.024053-.351338-.02855-.071608-.024435-.195268-.08934-.075469-.114497.016502-.139526.060027-.144786-.02049-.137956-.061936-.050015-.071057-.020914-.055615.002927-.383579.091207-.140968.003182-.120945-.050567-.07182-.142283-.09371-.306625-.046113-.038349-.210328-.137786-.016714-.056167-.004539-.062615-.029526-.151955-.068384-.223945-.031647-.071057-.239217-.160906-.143428-.047555-.12243-.076826-.224878-.207358-.108091-.118781-.117593-.10334-.131974-.087474-.087983-.107709-.106903-.264543-.180844-.298438-.014551-.05727.005557-.061427.20774-.140756.296911.02592.444115-.023502.126587-.025071.043991-.051585.011284-.139271-.037586-.223012-.028253-.072329-.049082-.029695-.041192-.038052-.096722-.13312-.108345-.122387-.060366-.044882-.120308-.068681-.057821-.019302-.161203.005048-.159846-.012218-.108642-.032283-.791804-.37853-.248507-.08934-.258519-.060112-.184026-.032241-.135029-.086116.059815-.280663-.005981-.359101-.026471-.08442-.542788-.546945-.158785-.006236-.150937-.038901-.099607-.091971-.087771-.109024-.119248-.108303-.132484-.090359-.13961-.04501-.098376-.099861-.02978-.072202-.058797-.037416-.064184-.019514-.065457-.008654-.1587.019387-.158149-.003776-.069657-.012557-.063548-.026938-.160779-.107497-.113606-.100116-.121242-.054851-.240447-.177493-.164045-.044713-.311674-.050228-.143513-.012684-.138592-.030204-.446999-.144913-.423582-.151149-.283421-.14958-.060154-.012811-.063081-.000976-.064015-.025496-.187887-.108642-.629032-.271033-.101431-.020532-.12735-.001485-.037543-.000509v.089001l.000127.152634.000127.253556.00017.253725.000127.253768.000085.253768.000085.253683v.253895l.000255.253895v.253937l.000127.253895.000127.254065.00017.254065.000127.254149v.254065l.000127.254277.000042.254319.000127.254362.000127.254277v.108558l-.038858.132865-.08705.199425-.015484.160906.071778.125272.069869.081832ZM41.346784,7.059468l.04607.042592.053112-.002248.047809-.192723.201971-.20214-.039113-.036483-.043016-.019811-.048488-.009842-.058245.121327-.176984.124635.000848.146271.016035.028423ZM41.995457,6.00503l.04484.012302.062148-.059518.000721-.028126-.041446-.011708-.100752.032835.006575.03398.027914.020235ZM70.787995,51.105514l.023035-.222927-.101855.0042-.058966-.024096-.02049-.03012-.012133-.048573.004454-.041573-.078396.045646-.138762.025877.07988.171087-.004073.076444.082171.030883.031944.046876.049761.002079.143428-.035804ZM76.849191,21.318056l-.019302-.013957-.002503.022187.042507.050524.071566.078353-.006109-.028804-.046706-.063972-.015569-.019599-.023884-.024732ZM76.873711,19.82523l-.009333-.017096.000382-.007339-.094686.059306.024096.006703.079541-.041573ZM76.946719,21.549044l-.009248.02469-.034107.017987.045349-.005345.019853-.030162-.003182-.04641-.006278-.031944-.017648-.006151.00526.077335ZM76.716326,19.922504l.045179-.002842.008569-.025538-.075426.003606-.062275.046452-.033725.001018.024902.02558.092777-.048276ZM76.926017,22.058955l.03398-.004624.029314-.00526.055997-.013405.071184-.000551.010521-.007339.000509-.014636-.02329-.015484-.012514.007721-.14398.028211-.02172.025368ZM76.87405,22.676872l.026599.009121.08828-.099437.022696-.038646.008824-.033938-.067408-.049506-.036568-.01489h-.017138l.017138.042549h.007848l.019599-.010096.049506.045349-.033174.059772-.086201.089722ZM72.688623,16.451164l.047046-.131508.067536-.050652.010266-.048149-.042889.046452-.061894.039961-.029992.111697-.018793.039283-.027192.028168.031265.00263.024647-.037883ZM75.172551,14.977597l.056718-.003606.042592.01243.046622.029483.033089.004369-.085904-.069063-.092395.002079-.046961-.027108.019387.040046.026853.011369ZM72.583204,24.816844l.00526-.021423-.020872-.012048-.016375.007169-.003309.016205.023544.012896.011751-.0028ZM74.65564,14.894493l.041404.005981h.03504l.052009-.015569.078184-.018029.033598-.01926-.209352.030035-.156876-.064227-.064736-.04204-.018326.019641.075002.058669.134053.044798ZM72.97234,49.314632l.044119-.071693-.055191-.050228-.028635-.0042-.098928.011157-.016502.063421.087219.050652.067917.000891ZM78.947335,51.223277l.009799-.014169-.002418-.024902-.029526-.011115-.021338.01646.007212.029101.036271.004624ZM95.125047,34.439738l.005685.014211.005727-.002673-.002503-.016672-.007678-.014254-.012302-.012133-.002036.001824.005812.014084.007297.015611ZM85.697293,44.538395l.088534-.047682.00263-.030416.033131-.060918-.053621.012642-.070675.060791v.065584ZM90.515994,40.448628l.04081-.082044-.024944-.058966-.029186.026514-.030332.074959.023162.049846.02049-.010309ZM96.09146,27.192469l.015399-.006872.022484.007466.019302.011072.015611.013193.025623.038222.001527.021847-.021084-.008569-.028847-.019132-.025029-.0028.002757.004285.01103.005133.020956.018241.029144.013914.023756.000382.000976-.011115-.01506-.044585-.031774-.032071-.040937-.023884-.026726-.006194-.007848.00806-.003097.007763.003563.009036.008272-.003394ZM95.50082,29.368415l.009842-.008527-.016205.001442-.018114.00246-.007848-.008527-.000255-.010648.013702-.003903h.008315l.001061-.005091-.001824-.004666-.018072.0028-.020193.016375.016417.02172.033174-.003436ZM82.278174,45.263003l.014636-.072202-.037501.007127-.02295.006618-.036525.031986-.034319.102237.064481-.021593.052179-.054173ZM72.202128,48.150957l-.037628.170494.055742.088959.107158.101728.114497.032835.066263-.140883-.164809-.106691-.029186-.166421-.057227-.009715-.054809.029695ZM78.735098,24.534271l.03381.157767-.019556.038095.015399.030926.040598-.033938-.016714-.094855-.025835-.104103-.045264-.019472-.056124-.043355h-.01629l.033598.047385.056379.02155ZM79.106205,25.269061l.00946.024944.028804.008654-.007127-.064184-.008315-.030926-.028168-.049549-.034319-.017054.030374.063463.00929.064651ZM82.035521,39.412601l.048997-.012854.006872-.015951-.011115-.013363-.063421-.00683-.05167.013363-.025241.004582.016417.020532.079159.010521ZM79.872259,71.010116l.107752.060875.037671.058966.096043.027786-.010054-.078099-.038349-.146313-.085692-.089001-.043907-.062487-.024859.009757-.009884.024393-.056591.057057.012048.118612.015823.018454ZM69.422477,50.200613l.050143.097358.076868.08268.174863.047131.091589.09388.068639-.010563.036907-.096043.000339-.041446-.087516-.147543-.084547-.065924.005642-.207104-.036398-.041573-.081535-.035253-.186062.060791-.013448.051118.114751.008654.066518.0487-.09757.131084-.099182.024053ZM69.932473,41.510491l-.035507.036865-.009078.106988.033598.017054.141774.021253.052221-.064524.017605-.098164-.116024-.0529-.084589.033428ZM69.304884,24.414217l.02435-.042634-.003436-.024435-.020914-.009503-.031944.012133-.008187.030713.011793.028338.028338.005388ZM69.500279,43.444419l.133162.082892.022781-.033174.019344-.101134-.144701-.028677-.030586.080093ZM62.374378,35.624073l-.006236.108939-.002842.102279.041107.046919.044458-.03504.09528.09897.006278-.046579-.013787-.134689-.176984-.323637-.053579-.018878.047809.119163.018496.082553ZM69.611127,43.755457l-.03958.194419.083529.095704.035168-.007254.087304-.04361.04221.049888.038943.116745.026005.198365.057609.129853-.01349.017054.016545.050906.096679.024774.106776-.096976.186147.022781.09651-.08548-.055318-.070548-.020872-.069317-.077208-.034362-.041489-.068045-.049421.003521-.179784-.124296-.01892-.062275h-.031477l-.057821-.027701-.096383-.229248-.102958-.051118-.06796.010648-.020744.055573ZM69.975616,52.465051l.049294.010266.039792-.049761-.018708-.057821-.108006-.049676-.026811.101346.027235.027023.037204.018623ZM68.865435,49.861111l.042295-.085438-.025623-.014254-.002333-.078014.022017-.062233.066475-.035592-.057821-.041531-.052943-.006363.003648.048276-.032368.143937-.002333.072838-.080644.119121.066814-.012854.052815-.047894ZM72.202892,47.683299l.05044.006788.057906-.062487-.047937-.094898-.11929-.091886.068554-.041786-.09757-.049421-.042889-.121454-.070251-.017563-.090486.033938-.036016.082511.01349.15187-.013745.05956.327794.144828ZM69.181648,38.357102l.110933-.02049-.067917-.04484-.024647-.064269-.080983-.009503-.054555.02469.07339.109321.043779.005091ZM68.939461,42.839483l-.021084.248295.085226.13995.075341.06533-.000891.082214.084716.004751.139144-.072584.197389.003606.132696-.121496.001442-.054512-.023544-.068087-.063251-.324697-.031604-.012472-.047555-.068639-.017902-.124169.026726-.049421-.061554-.016545-.049252.022144-.024817.155179-.055318.098801-.048022.022399-.094177.000891-.080814-.421546-.104358-.117-.068808-.125526-.050737.00666-.05184.150343.001442.115133.151404.460999ZM69.243796,9.765305l.011411-.015102-.014254-.004582-.036653.00297-.017732.016375.024732.008993.032495-.008654ZM67.899659,37.299864l.046664-.003351.05956.012684.080559-.090783.074959-.011708.031901.006151.100243-.021805-.004157-.015866.040428-.065754-.045731-.016629-.127775-.023671-.143895.016629-.061936.036186-.030035.072711-.0571-.005812.000721.036228.035592.07479ZM70.591497,61.055567l.004454-.003479.014211-.009672.01209-.022696.002206-.022993-.015442-.010648-.023035-.008103-.025453-.014466-.023671-.005048-.018157.01926.015611-.004115.007594.004666-.000721.009927-.009587.012642-.005006.010478.002291.012345.005048.013575.002673.014848h.007721l.009078-.014466.013363.001061.012811.012514.007636.019217-.000127-.005557.001612-.005048.0028-.004242ZM70.969603,44.706004l-.039707-.039919-.043398-.058754-.021762.007763-.05833.04747-.01383.06813.030374.097061.041319.049082.038689.002757.138635-.023544.172445.060621.020532-.053112-.037331-.019005-.101346-.025708-.087771-.095661-.038519-.017181ZM31.710739,43.496429l.014381.063718.068257.06219.053706-.059221-.028295-.051161-.008272-.096086-.068936-.086965-.02995.073602-.027998.016926-.026047.058797.053155.018199ZM71.064501,45.83765l-.02698-.010436-.027701.001273-.030544.009418-.103128.119078-.041107.084589.02995.008272.064142-.024393.056039.010309.035168.051034-.06796.045137.185426.034065.157088-.011836.075765-.131465-.049634-.014466-.12506-.183263-.131465.012684ZM71.659934,14.618793l.018581-.019344-.09388-.016926-.095534-.017266-.005303.017944.055361.024053.120775.011539ZM69.976592,41.190799l.018369-.012514.012302-.028804.055488-.014551.012769-.034871.000636-.040343-.00789-.047385-.083104-.085395-.093116.04904-.018835.051246.074366.153779.029017.009799ZM70.441026,43.184543l.084207-.058627.114454-.194971-.22123.03678-.190814.178172.057694.033047.155688.0056ZM70.54742,44.139587l.035125.055785.081153.05553.201758.039877.143386-.013108.00157-.048403-.027914-.04327-.050524-.043016-.046579-.142792-.043228-.048828-.125017.127478-.100031.019514-.069699.041234ZM70.837289,43.159005l-.046579.279815.070802.313031.021211.058797.020956-.001612.054555-.019472.014339-.080432-.105758-.490906-.029526-.059221ZM70.852222,43.068052l.02172-.079032-.002842-.168245-.063378-.268488-.026938.002757-.01349.035719.032962.385785.051967.091504ZM52.483419,38.09782l-.287875-.151361-.129472-.040683.004285.034998.034447.086498.110339.064651-.044585.057482.08811-.027786.027574.081577.176008.045052.04327.044628.182966-.022696.075765-.033174-.071099-.073093-.209734-.066093ZM78.340193,78.33646l-.124848-.00946.080983-.03661.120987-.08531.017732-.051543.075638-.084759.035931-.073305-.098843.007254-.01506-.058033-.073517.008187-.040216.02049-.050949.002164-.101855-.019175-.002376.051924.033216.065754-.083274.041149-.053961.086668.023544.043695-.045604.077674-.124508.048658.080983-.119205-.002588-.100922.068766-.080941-.044246-.057566.012472-.036101.079117-.033344.062233-.099819-.06936.00946-.062275.039664-.142792.032113-.057609.024732-.220085.168457-.144659.07356-.137362.088831-.134223.109321-.144998-.007297-.058585-.139483-.020744-.159846-.012345-.186147-.067281-.156791-.150046-.041573-.128453-.069657-.047555-.073984-.030756-.082935.008484-.092649.026895-.091419.264882-.037034-.14241-.042549-.149367.009799-.088534.032029-.216436.154119-.245198.202734-.167312.280409-.057863.378955-.103722.363174-.07865.140544-.147331.174481-.124296.096595-.074705.037628-.170451.019175-.062827.055827-.082383.267724-.075765.160737-.047173.164173-.032835.17096-.05553.149919.055021.043228.021678.044628-.070717.007848-.04484.020023-.039834.033004-.203116.295723.024902.1601-.011496.091292-.033471.034786.007594-.100497-.007933-.083401-.052136-.068596-.162603.197304-.123957.11929-.020447.07305.012514.082383-.087728-.104018-.06253.017011-.115388.055403.015357.048234.095364.077547-.095364-.050609-.096892-.031562-.09931.043313-.096255.062912.089765.041064.027362.072287-.050694-.043482-.069954-.013702-.075044.029271-.063506.088492-.051203.038774-.056633.026641-.108049.128369-.199086.116618.061554.031435-.021593.02295-.069954-.004073-.013872.058245.012387.060748-.081153.002248-.135199.080474-.183644.049464-.241041.119078-.192807.115388-.042379.065372.05413.142792-.053918-.020193-.087135-.055742-.095449.04047-.230902.156367-.039749.006872-.155391-.037246-.24295.08951-.113945.078905-.213891.217327-.223182.207782-.203116.21843.012387.140841.044119.050694.009333.061342-.062275-.061766-.090825-.045773-.111485.071396-.151319.15361-.116321.047216-.03135.047809-.004666.05553.032495.055106-.003691.063633-.016332.066899-.069572-.201631-.271373.209649-.028423.051967.041701.079074.068214.052858-.089425.018454-.075638-.067196-.128114.112885-.00403.082256.012769.071014.118654.067366.099819.022441.029101.015611-.106394.017902-.034531.024986-.007127.05587.054682.088619-.129938-.043101-.180123-.117763-.049421.005939.007933.087516.055658.062742-.177748.002715-.044246.091419-.011369.116915.169475.009884.152846-.028295-.207358.110721-.03504.066687.015399.083274.242696.020405-.063718.059433-.146186.037925-.405596.058118-.030926.031392-.013363.110806.019514.095577.150046-.01332.132102-.103212.019853.060918-.008569.054639-.096722.122727.100837.017266.158446-.11246.075553-.036992-.256695.276251.02435.100582.124551.043313.33823.037543.337212-.01243.056888-.019769.095789-.116363.061257-.00963.179232.069657.049973.053579.150555.218303.073305.002418.222036-.02329.140374.014551.051585.036992.045094.051882.067154.04467.029356.065881-.021847.089044.03958.067239.031223.026726.1058-.027489.132865.03644.074281-.036949.169857-.033513.089128.018793.160652.054724.166718.027829.305819-.015951.432109-.10843.053324-.04764.039707-.065457.197686-.228484.336193-.272221.101261-.122557.086201-.142113.104994-.079456.320116-.070802.05973-.027659.068384-.011115.01875-.042295-.003436-.08022-.061045-.056845-.050355-.065669.001061-.046282.143895-.257289.093837-.225897.06236-.244605.064099-.100752.153822-.17393.026259-.095237-.13978-.063039-.029907-.039537.184832.001358.064693-.223266.019175-.240235.022568-.140332.102831-.337551-.034744-.035592-.056039-.022356.155476-.014126.06639-.071057.031519-.111867.094346-.026811.177239-.001782.06656-.030289.120987-.084632.10317-.054215.109236-.034701.129429-.059263.124254-.075935-.053452-.095237-.106564-.143386-.020999-.0585.138338.094516.094007.093922.09528.065584.067536-.012981.043737-.045561.012981-.079202.042804-.047937.063633-.030289.058839.019556.070972.052094-.135368.091589.033598.015654.065202-.018793.244265-.027956.085819.087304.129132.032538.128963-.009078.053112-.016629.03555-.046622.028762-.070802-.023629-.144234-.031138-.041786-.158149-.026853-.175966-.057397-.050737-.090189-.021847-.068087-.01103-.075341-.058924-.035889-.209394.031095.04467-.043737.087856-.012387.084716-.042973.043991-.068426-.059348-.06113-.075978-.022993-.003691-.041192.118654-.020787.112291-.092819.101473-.111824.230308-.097104.095916-.056973.090868-.070081.158615-.205831.247956-.488403.055403-.066475.314473-.306286.061851-.08934-.001442-.122557.107879-.074663.092055-.116575.211006-.229545.035083-.055742.049888-.108685-.082892-.094261-.059179-.030713-.108218.020363.097189-.163239-.086286-.084801-.02435-.050058-.004582-.063081.041064-.095025.084716-.058076.084801-.022187.075469-.071566.088238-.113266.003224-.126248-.1086.101219-.182626.114369ZM85.567948,45.082201l.036271.046537.093031-.047767-.000976-.133841.000976-.09371-.086625.115769-.042676.113012ZM78.114169,77.649225l.008145-.109703-.076784.049464-.037586.004539-.076444.065839-.032919.130575-.006703.060027.167906-.086498.054385-.114242ZM84.175026,45.930723l-.049549.078905.035677.078523.064609-.022823.03135-.061469-.026938-.080262-.055148.007127ZM83.639874,73.005514l-.111145-.074578-.33-.017393-.064269.037331-.06096.052349-.121454.056506-.10703.071735-.098504.14801-.113775.129896-.131678.086922-.147331.048446-.077674.003818-.140925-.011157-.491627-.139313-.194886-.085056-.405468-.218388-.060918-.023502-.065372.004539-.103806-.031647-.088407-.064227-.010096-.035295.029398-.021041.094983.036101-.018114-.069996-.156155-.146271-.08671-.335218-.056336-.355411-.042634-.118781-.077208-.101303-.010648-.099691-.11386.016926-.192595-.240532-.038095-.081238-.04624-.067281-.076614.036016-.01786.079583.051203.050991.039749.060748.036865.079329.017435.083953-.010563.084589.000382.08442.073772.260004.02032.162518-.032198.060494-.102322.022102-.094898-.014042-.048531-.073178-.025411-.165954-.033768-.068554-.068299-.031604-.24855-.084929-.11929-.085226-.043737.017393-.032368.06376-.052094-.052943-.060112-.027786-.099819-.017266-.004794-.065202.038392-.031307.03504-.178299.052858-.054045-.084674-.173845.031689-.066178-.005769-.076953.037289-.116533-.247617-.3272-.070463-.105546-.087856-.174821-.104103-.123617-.005981-.033725.178851.028592.059221-.011751-.090486-.168288.029059-.057524.014678-.063887-.098758-.181947-.05727-.061554-.042889-.062021.010266.002079-.024859-.06253-.066518-.110467-.046961.009672-.100031.078184-.075341-.012218-.030713-.052688-.011199-.065924.011496-.062487-.01875-.041828-.226151-.121539-.100243-.043695-.039113.021169-.033344.038731-.058966-.019769-.057057-.06936-.277524-.083062-.042634-.026132.011496-.119121-.083614.073814-.051755.072838-.069529.046197-.019047-.064863-.036228-.050609-.07445-.065499-.012727-.064736-.14644-.224284-.068511-.073135-.045222-.086541.100625-.149664-.213637.005388-.21054.031392.19425.250077.21194.236799.109958.146313.092055.159846-.002248.152295-.090486.115684.054555.060197.08531.118569.058203.011921.020999.037883-.00123.059645.029738.049761.078311.080686.031774-.026938.066093-.116448.052433-.052433.05727-.046028.0501-.02452.05587.00929-.019853.054088-.030756.044501-.132484.100031-.085438.118866.668866.902865.057609.087644.07988.175372.053621.044713.060706-.020108.025877-.07059-.03012-.054597-.174778-.204686-.107794-.18305-.010521-.091249.007-.064905.068893.159676.08425.145422.272645.181057.02995-.007678-.032029-.068808.019853-.046494.044755.010605.111994.099394.003351.048743-.053112.069699.00123.07602.069614.042379.046834.064863.009333.085777-.028338.077123-.037883.053621-.195607-.167651-.071354.010478.242314.335133.030289.060706.048319.164173.038986.085353.076444.045222.081492.017817.083486-.019938.081535-.032325.061639-.008103.184323.202904-.081662.006448-.075596.02995-.071778.057651-.015229.093837-.093668-.18216-.062742-.027108-.029907.040046.108812.252707.043779.075172.075638.019896-.02978.078523-.018496.079753.025368.080814.121157.260937.103.172699-.060791.023629-.053706.040767-.044076.067493.048106.184323-.038561.111951-.11789.182753-.078268.294832-.043228.257798-.026599.262294-.039028.082638-.135241.122981-.075384.053833-.053197.013999-.055615-.00157-.30162.088025-.28499.158234-.048064.044246-.030629.061088-.01909.079286-.003479.078353.024265.08425.036525.072796.15344.122387.268912.086838.255295.110551.128835.135114.141562.114624.150386.050397.158743.019175.245368.135623.184111.24032.06796.124848.055191.132993-.067281.319903-.047682.172403-.182881.335854-.212194.314219-.204389.236969-.03555.0501-.026599.057015.009545.034659.033344.02032.10983-.001485.10563-.051627-.026938-.041531.014805-.047979.042761-.011496.04344.029271-.031689.05307.000297.188353.007721.029441.03101.01332.185596-.06236.140162.039155.023926.0473.024902.128581.022144.059051.11.054215.088407-.045773.083868-.062572.301535-.189286.191195-.136853.179784-.159464.096679-.124678.073644-.149919.1671-.22666.077929-.160397.089468-.150428.114624-.144913.169475-.189796.097019-.219915.102831-.096213.089637-.1044.157894-.364701.178087-.350023-.179742-.099946-.034362-.07339-.004412-.094813.023035-.180844.096849-.147671.057057-.066136.065245-.052306.210709-.102958.139229-.050737.144913-.010733.166718.017435.163494.036865.053452.049506.058712.118315.041786.020617.071354-.142198-.01786-.070251-.043652-.047046-.00789-.059391.027362-.236205.055276-.201504.136429-.041319.120224-.087898.109194-.120308.0599-.156028.039961-.353629.058627-.349344.066645-.15344.086583-.140119.025326-.094855-.075553-.046706-.144701-.05973ZM83.390603,47.862022l.024732-.012642.009248-.025156.027829-.033344.096128-.081195.034744.008315.054385.045858.161543-.036907.000255-.055573-.084801-.03012-.108006-.021084-.065287.029144-.092692.01629-.064905.075384-.066008.049506-.065457-.007806-.064184.0529-.052858.026514.078014.038943.177323-.039028ZM85.681257,44.53988l.015993-.001485v-.065584l-.019175.042676.003182.024393ZM85.559252,44.701125l.020023-.106946.025835-.040895.004794-.041319-.057015-.00123-.055148.024393-.180632.121072-.161839.148137-.005006-.141774.068978-.13995.161882-.104358.057439-.097358.068214-.087898.189499-.170409.000976-.019981-.190602.07848-.074366.009248-.092649-.017732-.100158.019981-.104782.034107-.096213.056676-.145507.109788-.082341.024053-.086498.0084-.167185.041404-.164258.058033-.119036.073347-.076105.117169-.075978.003479-.07305.040343-.065287-.021932-.063675-.03415-.019811.053791-.032368.046961-.035422.032835-.020447.079286.133332.01629.043143.06499.03381.088238.052221.072032.120775-.030798.101431-.084844.083698.023035.070887-.004879.061003-.111145.184366-.129387.123151-.003012.028677.009927.028423.066263.036398.02855.055658.018666.057863-.000636.155052-.024393.157852-.055785.133077-.008484.13452.00963-.047597-.09931ZM85.69725,44.062209l.055021-.024393.014551-.02961h-.031138l-.038434.034404v.019599ZM84.826796,46.342173l-.043482.034362-.01926.03644-.003648.04064.109067.102958.011115-.010478.01646-.047809-.030798-.097528-.039452-.058585ZM84.953807,45.458822l-.04327-.001527.019853.176942.041955-.034786.031095-.077802-.018029-.044543-.031604-.018284ZM83.94493,46.207356l-.036271-.115897.026132-.064736-.005175-.061215-.085777-.071566-.140925-.093583-.090868-.10877-.036483-.003988-.036822-.024647v-.056845l-.041361-.055106-.07479-.020659-.075256.033725-.235187.07182-.153482-.008527-.25101.093243-.14241.100964-.13032.118484.006151.064948.022187.070972-.015442.021126-.031604.011072-.024308.030501-.007848.043779-.055021.033556-.065669.022399-.011411.066263.010818.06919.072626.140289.077632.055615.093031.035507.224709.042252.168712.049634.095704.045561.136047.011878.136132-.017648.120775-.000255.104952-.085395.110127-.062784.115345-.014211.0473.018963.032156-.034319.138847-.004285.08828-.036228-.06253-.190729-.01769-.120351ZM62.312145,35.746672l.012769-.047173-.012048-.104952-.137362-.218133-.002333-.157046-.060069-.074663-.005175-.05044-.057694-.164258-.144616-.134138-.085183-.022059-.039198-.048361.012175-.125738.042337-.042846.012387-.066348-.311546-.374246-.059348.003182-.021847.024902-.045434.002588-.065584-.012769-.007381.055912.155179.209097-.064609.102152.137447.431261.127223.242568.189456.14415.021465.0459.187632.106776.164215.247404.057142.027277ZM63.466614,37.130728l-.163664-.257119-.064609-.065839-.103552.029059-.136174-.050949-.091928.012175-.157852-.074111-.021805-.020193-.055403-.024477-.223563-.143471-.117169-.040852-.097273-.001485-.02418.098292.010521.05553.130575.006915.111739.037119.015187.117424.050355.046282-.001654.094686.312395.189753.14941.059857.171681.025877.101643.049888.097443-.020956.125484.030713.090443-.011242-.107073-.059391-.000976-.083486ZM64.308731,17.070268l-.046579.021381.01103.021423.079796.029398-.012854-.060578-.031392-.011624ZM60.505906,47.930364l.010266.205534.01926-.027659.029314-.095067-.019132-.160015-.039707.077208ZM61.159203,38.375513l-.466132-.25661-.097061-.026386-.017138.028762-.008824.054639.030374.052603.104867.018623.016205.020702.062148.041955.151489.025326.106479.060578.049506.097316.060918.032962.079711.021847.087474-.043482-.049082-.049379-.110933-.079456ZM72.053015,96.122555l-.062148.023078-.071948-.005769.022696.05587.045307.03941.064736.03118.13295-.037246-.06936-.086116-.062233-.020405ZM68.794082,85.125615l.03415.013108.04081-.010096.063718.035337.06533.008527.043525-.000255.014805-.038519.006618-.076656-.018623-.026768-.057482-.036865-.148858.045858-.043991.086329ZM70.832241,87.149012l-.038222-.050779-.10334-.037204-.002673-.070802.130872.022611-.000467-.063081-.237435-.26467-.215588.008442-.023544.154331.044628.171936-.073814.079499-.001315.089722-.108982.048531-.029017.068936-.002418.086286-.113309.08985-.021041.094643.041276.007933.152507-.032877.136259-.106055.032368-.008909.119036.014975.137362-.098843.21194-.025241.071566-.049931.024774-.068002-.02418-.075978-.107243.014678ZM31.585806,41.547101l-.123575-.050185-.046579-.054173-.005769-.05413.053791-.16133.033598-.04887.03521-.013702.078523-.088492-.018454-.051246-.025283-.029144-.031859-.016163-.051203.116321-.058415.003691-.054342-.052773-.023417-.098758.007466-.056591-.058118-.007297-.091419.057439-.061597.09231-.136853.090359-.017011.18602.020787.146652-.044585.06236-.071226.04624.034956.02172.122048.007212.237435.058415.14241-.008909.164554.024902.046494-.059857.024393-.078565-.021169-.00666-.060791.023205ZM68.842527,51.956158l.255422.145083.076317-.02715.081662-.002842.088238-.039919.042634-.080432-.077674-.224624-.15344-.095831-.163791-.083741-.128199-.104952-.118654-.117806-.237987-.190474-.30811-.200359-.13592-.054215-.080517-.069529-.07848-.033174-.060536-.06796-.140332-.058118-.100879-.113818-.16973-.129684-.033428-.049294-.010096-.08005-.040089-.059348-.092777-.063633-.068172-.089934-.075935-.064015-.100285-.031689-.17096-.082638-.486494-.390196-.190941-.128666-.151658.034659-.141519-.08162-.179063-.135835-.024053.040683-.004073.078947.034871.0585.073517.03415.04327.055997-.007466.087092.022059.084886.179699.19845.077335.138762.100625.117.131465.100031.120775.112376.250501.273239.090613.115218.103806.048319.290929.259452.108727.071354.124296.045688.24172.142792.155094.069487.099904.100031.137574.070929.204643.063675.034744.042083.02435.072923.042083.058585.14504.086371.155816.053876.026683.046325.03801.032156.068002-.008951.060833.021381ZM68.408933,92.864894l-.155349.013193.002206.056124-.036695.174736-.198577.138804-.033216.073729.01875.022738.08442-.003224.052561-.068723.030671.014551.044585.059348.143895.038731.06902-.000636-.02732-.139101-.025453-.017563-.026768-.059815.051373-.033513-.016035-.069148.00246-.066645.062445-.057354.010181-.030713-.016587-.024138-.036568-.021381ZM61.539134,35.877289l-.087389-.029483-.07076-.129302-.125823-.066178-.214146-.144234-.363046-.003691-.118866.018411-.276379-.202013-.080389-.005048-.076275.053536-.022823.053536.006151.147077.012005.07725.07356.13172.094134.112333.059306.047088.063972.035253.186571.026302.400081.011199.201462.092437.210328.042676.080135-.018581.11123-.044755.021635-.019514-.030883-.120139-.053791-.065881ZM93.224589,47.150225l-.083698.089765.020108.029907.054979.044373.022611.001145.047428-.076571.037077-.039834.00263-.025708-.057991-.030035-.043143.006957ZM95.319254,40.616746l-.222672.022314-.199213.052094-.136641-.008951.043185.07865.107073.083953.1545.186614.064227.010818.19285-.03241.132908.037628.060366-.15204-.056082-.15887-.140501-.119799ZM92.00653,50.757994l.00683.041701.061342.089934.006915-.196032-.012981.003818-.062106.060578ZM85.871732,44.728445l-.040937.015526-.133544.109194v.049718l.000042.044246-.000042.062912v.070802l.031477-.048997.134477-.095619.0571-.108982-.048573-.098801ZM96.356681,41.2325l-.073475-.008696-.048276-.081195-.319097-.091589-.15904.021975-.076614.041573.022399.063209.145762.120563.060451.000467.170112.057524.344041-.001018.005685-.030544-.014805-.056973-.057142-.035295ZM92.583891,29.560077l-.023205-.019514-.011793-.002673.000127.005515.009545.004497.012599.01086.014551.014508-.006618.001442-.015696-.006448.006745.010012.021508.005006.007212.001358-.000127-.007933-.014848-.016629ZM97.343202,41.647259l-.12506.045985.064354.060663.053918-.010945.107667-.087728.090825-.019641-.151913-.011921-.039792.023587ZM96.676076,29.268384l-.012005.009545.000255.013151.009036.008442.014466.001951.012345-.005769.001612-.012175-.009418-.011963-.01629-.003182ZM98.456183,47.660942l-.034531.003394-.059221.027914-.049718.106861.05587.084123.126078-.071014.012557-.052264-.051034-.099013ZM96.877665,27.624748l-.006236.014763.008696.007933.005812-.009757.00526-.018793-.008484-.00666-.005048.012514ZM96.748829,35.403945l-.009078-.007763-.003479.000848.005472.014381.008866.009715.005557.007381.002715-.003606-.003563-.011157-.006491-.009799ZM91.787293,50.522553l-.017902-.000127-.047513-.017817.052433-.012005-.084589-.036186-.094177-.007-.027829-.018326.005685-.040513-.055573.050312.033768.06639.167057.085735.057397.052518.091037-.134308.007381-.041404-.067451.013999-.019726.038731ZM87.311021,49.858311l-.006278-.009672-.006745-.008654-.003691-.000636-.003818.009927.001824.009545.007509.008612.010266.004582.006788.000255-.00263-.003563-.003224-.010393ZM87.214851,46.654356l-.071651.020278.025835.02592.067408.039028.014678-.023926-.001485-.054767-.034786-.006533ZM90.429751,82.860966l.018411.056591-.007763.087644.0557-.01366.067663-.081832-.040343-.067493-.093668.01875ZM86.892572,46.311714l-.039368.030586.019047.036356.030883.020617.026089.004412.038052-.019514-.013872-.037713-.060833-.034744ZM85.909232,47.606897l-.031519.024605-.00823.027065-.005727.018411.002885.026259.017351.00543.003266-.015017.003903-.026556.007763-.011708.011454-.007933.022271.016248.018666.002164-.002842-.038137-.03924-.020829ZM87.01148,45.362058l-.065499-.043228-.015823.016672.003394.027065.054555.038901-.005048.031859-.035634.073772.027701.015569.031816-.043907.040046-.031138.012218-.032877-.00789-.018835-.039834-.033853ZM87.508156,47.904232l-.021253-.014169-.00263-.023247.016545-.008357.007933-.007424-.01383-.004836-.027108.012387-.011751.023629.003394.018454.027914.017563.034362.013024.014084-.011624-.006915-.011624-.020744-.003776ZM88.028884,41.604752l-.044925-.013914-.020532.030332.044925.07182.06936.016545.071099-.008315.003818-.01926-.077038-.024265-.046706-.052943ZM90.372566,82.137757l.076953.002248.045052-.039707-.487555-.034828-.126884.072711-.117806-.01103-.108642.100964.049803.016248.217667-.021932.099649.048615.039368.075002-.048912.081365-.086329.07988.002757.045858.039325.109024.033216.011836.070293.002545.078735-.061003.149283-.043567.000339-.035465-.065118-.113139-.067366.004921-.076571-.144743.073941-.067366-.017223-.017181-.077335-.030798.02189-.025538.115175-.010902.040301.045391-.008103.116533.134096-.155943ZM87.855548,46.267977l-.056548-.013702-.039961.058076.063293.054597.069869-.013575-.004327-.029314-.032325-.056082ZM69.334621,84.317648l-.087856.093371.048276.056379.114836.035677-.054173-.186487-.021084.001061ZM60.20399,34.359816l-.051924-.072244-.005897-.045137-.058966-.043864-.051924.024774-.018538.065457.038646.041913.088789.046113.059815-.017011ZM44.672363,81.398599l-.035846-.002079-.062657.07848-.01786.06236-.026726.011878-.017308.04361-.027108.034192-.073305-.026471.000382.027829.0613.105249.097443-.026089.097146.02698.059221-.158234-.017054-.077208-.037628-.100497ZM1.773447,56.833274l-.000339-.092565-.044246-.090231-.142919-.393166-.044373.015102-.048785.051034.070335.284439.241253.415904.033301-.055361-.043525-.10597-.020702-.029186ZM45.714414,80.390909l-.08811-.034362-.062445.071438.010096.034701-.0014.077844.023078.00666.070505-.01332-.004666-.045179.086541-.043567-.033598-.054215ZM32.895412,70.290047l-.116703.051373-.300517-.033386.002079-.023374.046834-.093752-.063421-.0515-.068384-.02155-.246471-.017944-.304122.1016-.568623.120987-.074832.08531-.048276.116024.061003.064524.208164.139483.197856.019387.142028-.032453.152973.021593.07759-.080814.216691.054894.083062.076953.178002-.068045.040216-.127054.061003-.05727.206637-.043016.221357.056803.068511-.010012.071438-.068808-.096425-.138465-.147671-.041489ZM40.666719,76.167387l-.037119-.216649-.113648-.085183-.065202.005175-.011921.109448-.075214.061681-.022059.05587.004242.127054-.033386.117721.061512.117254-.014848.118654.028804.083104.036653-.006066.134477-.055954.096383-.082935.036568-.10071-.043907-.117678.018666-.130787ZM42.380691,74.07357l-.075256-.059221-.164682.006957-.011921.032113-.007.072117.069699.044246.189159-.096213ZM45.908452,76.46294l-.034277-.028083-.1156-.041658-.222842-.266537-.084547-.046579-.117806.155476-.090316.057142.056591.059179.080262-.007381.037289.097273-.019344.063675.168542.232557.027659.060281.033556.041489.040216.031477.131381-.042083.111782-.090486.017817.00157.012133-.042973-.090953-.06639.048955-.050355.009503-.117593ZM41.931231,74.325089l.178808-.011496.10563.0543-.007297-.027405-.043652-.06902-.033344-.02715-.088025-.019811-.112121.100582ZM41.499418,77.233533l.008103-.098461-.00929-.008103-.04047.052391-.051458.022271.047555.1545.045561-.122599ZM45.963006,79.629564l-.016078-.056251-.033344-.050864.000255-.053706.017648-.114878-.035337-.168203.011327-.254149-.012133-.136556.003606-.134562.028126-.172403-.007509-.174099-.018369-.087262-.007678-.088407.009248-.250628-.097358-.13715-.228951-.109915-.080432-.002036-.120224.13821-.069402-.001315-.245962-.040046-.053197.045858-.098546.131805-.057736.055827-.084207-.024011-.084292-.04327-.064693.004921-.062869.035168-.141986.016163-.145465-.002757-.088407.03784-.078777.060324-.025877.076105.015187.087559-.077929-.081153-.078565-.053112-.091419.05693-.095619.038986-.322491.031477-.258986-.067705-.363471-.139271-.057821-.040852-.052264-.052349-.059942-.03415-.137532-.052052-.053876-.059688-.060748-.017308-.069911.008739-.100455-.047343-.083274-.08391-.073644-.007084-.082426.037883-.14521-.005854-.281639-.096637-.125526-.073347-.011157.164342-.079796.29445.020447.146059.044416.166718.083571.225091.002206.072541.014848.043058.172657.336957.175542.273961.229418.289699.026132.13189-.030289.134944.07479-.008993.045943-.066136.010775.065711.025962.055445.196159.191365.013363.050779-.074069.158064-.041913-.130362-.077717-.102661-.218515-.162179.048064.338824.038986.134053.275403.578762.037586.037459.06253.025156.053409.045985.089892.118018.152082.255422.08845.07356.128114-.023205.188014.051882.064481-.014381.03958.021975.023035.059475-.147586-.001358-.143513.033004-.015951.049252.03941.055488.037671.156113.180166-.052433.284227.010266.169942-.016248.189117.142028.169518.026514.049718-.010393.101388-.167991.062742-.202395.03924-.077038.051924-.065669-.112757-.086965-.003309-.043907.015187-.050906.220763.151319.090571-.060791.018538-.135962v-.08408l.026302-.059772.05553-.027744.022187-.074366.006278-.057482-.057439-.130405-.005006-.075129.138126.155943.0557.211685.105927-.055997.015399-.033344-.016502-.146313.04764-.048997.150173.039792.133671.085141.009333.03941-.008824.039707-.033216.035083-.108727-.035677-.049379.061766.064015.154882.109067.148137.066136-.03784.134096-.020193.044501-.037755-.029017-.29848-.053579-.218345-.003733-.239005.015526-.130108.061639-.100625.04501-.105588-.005685-.13698.022484-.129132.054979-.134308.076444-.1002.036101-.023205-.01892-.027786.032622-.086498.058373-.063548.03504.077971-.046706.030204-.026768.034277.091207.05693.026895.050864.009248.055742-.009545.069233.016799.053579.05133.009969.014254-.069742-.014466-.084504.01226-.072329ZM16.918313,42.033637l-.006618-.034192.005727-.099098-.047852-.023884-.053452.045773-.032877.126969.054682.063675.080389-.079244ZM31.225687,37.974966l.179232-.232684.04887-.229927-.060918.015314-.005557.101176-.021041.067663-.028295.024308-.048955.042931-.111994.184662-.047809.045434.006151.056845.090316-.075723ZM26.073931,37.703169l.100243.195353.024732-.019641.044882-.168797-.04047-.079159-.004497-.13732-.018157-.036313-.0515.075172-.067748.011242.040852.09931-.028338.060154ZM30.950623,38.233061l.114412-.093413.010987-.054767-.037755.026726-.22823.112927-.109321.126757.198831-.094092.051076-.024138ZM4.605192,50.126926l.072966-.10194.014339-.093074-.028932-.062954-.100752.101982-.057354.084462.011878.051415.087856.020108ZM31.105421,43.31393l.014466.056464.021211.006533.075129-.005388.026726-.107412-.032962-.013363-.079668.01209-.024902.051076ZM31.537233,43.370393l.019981-.00946.034574-.039664-.016799-.110297-.03924.053027.001485.106394ZM16.071615,43.107462l.044416.011115.0473-.036059.009799-.057991-.050864-.05833-.017181-.051755-.039537-.003606-.019175.031944-.026726.061088.051373.053706.000594.049888ZM23.474658,38.05947l.111909.21737.166973.157385.384088.232726.428164-.272476.113818-.162264.09511.006745.011624-.098928.088789-.091801-.020447-.027362-.061469-.041361-.045688-.087559-.146143-.083741-.065542-.07199-.064057.06656-.096128.02592-.147586.090019-.044713.006915-.093625-.038604-.201504.094813-.167482-.010436-.074111-.088577-.050949-.033386-.116109-.121751-.02978-.003309-.023035.014805-.020108.028762.045476.113648.022526.177875ZM45.832559,77.245963l-.023247-.014933-.031604-.002885-.095322.027192.012175.033301.076402.07216.061597-.114836ZM23.108811,38.538074l.233787-.066687.232217.080729.13015-.024053-.004412-.054809-.028635-.045688-.047809-.042931-.103552-.03012-.033216-.110127-.059263-.104018-.011115-.113351-.047088-.104952-.055658-.000255-.054894.02995-.123405.147755.043016.080474.013108.14784-.073432.049125-.084038-.020617-.036143.134689.041786.048234.068596-.001188ZM44.722591,81.094603l-.031562.052179-.010351.046579-.028847.024944.052052.032835.014084.074663.028974.012769.07865-.000127-.046834-.18619-.056167-.057651ZM57.958388,34.357864l-.090571-.228951-.07882-.102746-.140841-.031859-.048828-.065202-.016969-.199383-.135792-.050482-.071863.023756-.116363.140204-.023926.081408-.116787.063209-.013745.064227.018623.06533.087856.023205.061427-.072838.191789-.021338.067536.014593.008272.085183.029271.135114.085395.068214.117084.030035.087941.110976.018072-.049421.064948-.004412.01629-.07882ZM57.55784,34.605735l-.066433-.008357-.091419.011157.005515.030459.160609.066475.071905.013702.0028-.044161-.027829-.030544-.055148-.038731ZM57.013779,33.575011l-.054003-.034107-.098673.015569-.081789.087983-.000848.095789.104061.129429.136514.007254.027447-.019005.024647-.032962.011411-.082723-.018157-.093752-.050609-.073475ZM57.31209,34.419037l.034447-.100455-.039495-.068045-.043101.014466-.139695.109873-.027023.056633.152676.169518.06919.035337-.000127-.018369-.071184-.078862.018623-.094474.045688-.025623ZM58.218264,34.396086l-.13435-.035931-.039495.045264-.036059.020956-.036398.005897-.013575.027108-.024053.102406.073178.085013.090231.033513.123575-.09914-.005515-.0473-.017435-.02995-.026726-.020108.080177-.062827-.033556-.024902ZM57.136294,32.910896l.089425-.014423.003309.022356.027574.042252.128072.040895.097061-.075299-.040046-.044161-.044161-.020956-.0501-.006363-.094728-.03521-.179232-.150555-.056379-.058373-.057609-.196116-.090656-.081747-.332418-.160185-.202352-.154119-.156664-.040258-.033683.036822.006109.096383.047088.058118.252071.186996.261658.337678.247617.179445.178045.036822ZM58.349348,34.573579l-.068511.135411.029441.0501.027574-.004794.066051-.030926-.021423-.040852-.033131-.108939ZM60.277804,34.317012l.168669.104952-.002248-.029059-.038222-.088916-.068596-.072075.061597-.09931-.516571-.373949-.08005-.043737-.101473-.022568-.1114-.083529-.111357-.007594-.123999-.082977-.047767-.060494-.137701-.083783-.161118-.148052-.347605-.074663.026811.040598.108727.093074.039622.135114.111994.073984.11526.111485.067536.024732.028508.041531.112248.1016.183517.078523.187038.116703.065796.008909.078311.071608.364531.13961.127944.128284ZM59.561935,35.005774l-.028083-.026047-.030077-.010436-.065372.04064-.051882.06236.043652.043567.071523.005175.058966.015314.016926-.003054.057015-.037416-.006957-.080177-.065711-.009927ZM58.455614,15.04789l-.136174-.033386-.064481.041234-.008909.050355.041658.02732.028295.102109.091843.012854.073178-.02838-.006872-.051288.032113-.048276-.050652-.072541ZM45.944765,76.937556l-.160821.075426-.174948-.00157-.060663.035168.012175.034956.103425.070335.13995.008696.132229-.034065.04187.092946.064312-.015951.088153-.080135-.067196-.096637-.118484-.089171ZM59.135043,99.921435l.011624.078565.042167-.068554.083826-.233957.016672-.177917-.077674.058415-.076614.343448ZM52.313689,58.917334l-.006363.214824.038604.055827.032835.007127.107964-.371022-.021169-.018793-.108473-.023035-.043398.135071ZM52.353184,58.27723l-.065796.026259-.018666.120181.014466.129811.055658.128623.027065-.02015-.020193-.154119.050652-.219576-.043185-.01103ZM53.193307,37.88974l.020023.068299-.118272-.022187.009672.028465.041276.061724.071778.007975.136005-.035592.045688.02329.018538-.068851-.053833-.028465-.170875-.034659ZM52.533095,59.909497l-.151658-.259876-.033174-.203583-.053579-.174227-.235696-.490482-.101813-.282912.056888-.284566-.097867-.910204.101431-.454084-.049549-.055403-.12209-.069911-.0543-.072244-.080856-.170239-.008866-.341793-.156028-.21037-.169263-.096043-.1142-.172657-.076911-.143725-.011115-.079626-.046155-.134859-.129599-.092777-.089256-.044076-.190941-.134986-.093498-.136726-.191577-.388627-.089213-.103255-.176645-.111867-.144956-.006321-.093668-.028041-.331951-.247659-.103509-.054003-.082977-.116236-.124169-.124466-.072372-.092098-.110382-.097528-.075511-.370852-.000212-.360119-.023799-.429309-.114709-.207443-.062275-.06673-.06813.021932-.00526.134053.01909.091377-.048022.004369-.17096-.118315-.213637-.125993-.115345-.140968-.083868-.132399-.069742.005133-.049337.020829-.049421.162391.079923.280069-.039071.038222-.06796-.064736-.122811-.146355-.063845.047767-.084929.01875-.07356-.147246-.062233-.092692-.089977-.306625-.080262-.337975-.007509-.244138-.156622-.134138-.061554-.230605-.048743-.064354-.045816-.163282-.181184-.213764-.185893-.151064-.154373-.142707-.132696-.202437.058076-.146228.094219.031138.100031-.014126-.080008-.148816-.077293-.099946-.199468-.187547-.092565-.047216-.200613-.027744-.222418-.17096-.136302-.074281-.096128-.011751-.111527-.026344-.078311-.096679-.139101-.031944-.196244-.191068-.095704-.192638-.048743-.070929-.065754-.053409-.096679.032113-.079541.014551-.174948-.027192-.057736-.078438-.113054-.099055-.217964-.026344-.171936-.062487-.131423-.062106-.133205-.078523-.122727-.131508-.108515-.175584.018581-.225472.02698-.145889-.138253-.056591-.239514-.305777-.011751-.125145.064184-.255719.065118-.440339-.095449-.326861-.185596-.39936.012727-.202395-.093158-.0028-.104231-.039622-.146271-.196753-.110891-.129472-.074663-.119205-.080771-.161373.012981-.129599.019344-.087177.007721-.230987-.103679-.224327-.032495-.22946-.097782-.287366.027023-.190814-.021253-.157385-.030713-.135792.031689-.086838.01349-.109958-.135156-.109958-.144956-.084038-.186741-.148689-.335981-.231581-.077293-.175457-.142325-.156325-.189965.060536-.140289.028677-.130575.117848-.18076.08705-.175033-.078735-.08285-.066475-.061639-.234508-.080177-.255465-.067875-.128241-.051246-.154755.047894-.377682-.071651-.177536-.021975-.265519-.06813-.302765-.075511-.151573.005048-.12192-.140459-.178723-.044628-.128114-.079668-.046113-.100837-.07305-.014126-.098164.007127-.071269.060494-.118654.032622-.153525-.14118-.038434-.097825-.006406-.068384-.048403-.077123-.075044-.027532-.239005.00297-.252792-.020235-.158276-.04204-.117339-.029738-.124551-.071057-.132399-.213764-.171639.015951-.06936.049803-.089765-.075681-.051627h-.110891l-.062275.119715-.100837.103382-.19845.078693-.036907.412341-.123533.452896-.111697.334284.020363.101303-.008357.098673-.060409-.044331-.053282-.055276-.081238.132229-.147119.342896-.013575.177748.086498.048106.060069.047131.072329.015314.032877.043822.018199.086201.046367.074111-.011921.079965-.05587-.031307-.117381.000594-.059857.069445-.151828.139441.039919.400293-.071057.210752-.068511.163409-.077335.30968.010139.164215.068766.11683.073899.170663-.044331.235441-.045264.16833.101134.48747.027617.260004-.055318.177027-.163027.523316-.073263.382773.023459.210922-.070548.193953-.080644.310401-.090698.234211-.317697.472537-.062996.228612-.107158.285117-.228399.166251-.17236.103934-.378361.102746-.218133-.002291-.1128-.063081-.064524-.054385-.257246-.090825-.312607-.205916-.241084-.066772-.118357-.206595-.012048-.08565-.042889-.111739-.126163-.147289-.237859-.049591-.244265-.106224-.15064.015017-.327115-.091334-.217667-.129938-.199171-.179996-.262549-.311928-.222588-.08442-.28499-.128963-.163579-.107709-.099267-.052179-.110127-.080602-.099734.017987-.173166.002376-.1086-.075808-.014381-.059391.016841-.046749.005981-.085226-.037968-.012599-.038265.000212-.031859.022738-.044119.016884-.152719-.065542-.214018-.108812-.040301-.095704-.067663-.117212-.295935-.170027-.171893-.140459-.37887-.203795-.097146-.098504-.031816-.086032-.028635-.124211.085438-.129429.082341-.091292.258137-.379846.07759-.06673.096679-.103128.089256-.277566.043949-.158488-.075681-.239599-.002333-.402838.299668-.156367.083104-.020447.07759-.034192.088322.048658.059475.07585.061639-.013872.167269-.280833-.026726-.116872-.06936-.099946.024138-.061469.515171-.550212-.062742-.134647-.076614-.030883-.146822.00929-.137659-.117509-.087262-.222588-.121581-.007806-.217455.22789-.025368.052433.052688.029526.046028.138168-.085226.162349-.085268.001739-.139144-.016078-.063251-.116024-.028804-.176433-.088704-.049718-.100879.033386-.083571.062021-.058839.017944-.049634-.040343-.002333-.073729.12769-.12243.106861-.07848.007975-.029356-.07759-.023841.012005-.057227.099098-.100752-.046749-.005175-.121454.107921-.129175.062148-.171724.132144-.246514.086753-.168585.117-.236375-.035337-.219618-.11543-.048064-.060536-.108006-.088916-.241253.096722-.151489-.010266-.083189-.034107-.143047-.022823-.122599-.08548-.295256-.136683-.31337-.026174-.152252.006151-.113012-.070632-.109194-.040598-.214443-.028508-.089044-.106012-.112248-.213467-.080177-.057482-.130405-.02049-.138083.098334-.080686.04624-.157512-.17516-.280324-.181014-.089425-.024647-.047343.043907-.034192.083571-.05307.007763-.06236-.03784-.109448-.107073-.071566-.019556-.187929.114285.013363.03924.153355.058203.160906.159379.07619.032792.181226-.041701.247574.030077.24978.199043-.037034.098758-.018623.137404.006703.150301-.005981.10177.103382.111654-.045773.0084-.116194-.025029-.091928.031138-.086498.052518-.038349.150258-.048955-.070802-.149155-.067239-.088959.051797-.148477.068087-.134647-.027192-.086286-.034616-.202989.0585-.361434-.001485-.12069-.084674-.03555-.144447-.027829-.035465-.032877.064736-.0571.074535-.218642.014805-.032835.030629.013236.072457-.008315.090825-.083868.006788-.103934.023968.011369.111315.019217.086838-.038689.04327-.113988-.079159-.050737-.085565-.08005-.026344-.062403.030544-.016417.076317.009969.19705-.057227.022144-.147713-.007297-.068172.037119-.102788.24715-.188056.094431-.028677.12909-.013024.109491.156664.198874-.07585.101982-.079583.083401-.079371.03538-.169136.032368-.124254.090528-.052349.095873-.009969.090825-.034531.116872-.054427.13855-.01069.075129-.113266.074196-.201377.2228-.100964.227763.132017.123872.155646.089044.113012-.002885.000891.022738-.117933.091419.073178.094092.113606.087516.068893.012939.050567.037204-.106988.020532-.158615.007636-.030629.095449.019514.109618.027701.095619-.019514.067536-.059009-.046452-.025877-.071396-.135708-.145592-.097613-.044331-.142622-.034362-.042634.044076.005388.222036-.027701.102194-.051034-.057694-.012599-.162561-.13418-.131593-.530486-.131847-.075002-.008187-.123405.017181-.084844.052136-.008315.051288-.056506.041489-.091674.047385-.083826.072499-.054427.060494-.002588.075384.068172.142071.039834.040852-.005388.067536-.066433-.07042-.058118-.022653-.054894.110297-.053112.022102.013872-.30794.055148-.209013.044501-.123363.049634-.096298-.023799-.051203-.367586-.288469-.155773-.236417-.113691-.132696-.178002-.127817-.092183-.080347-.206467-.122981-.243247-.08565-.116957-.115175-.12909-.041446-.160227.056379-.013914.107455.02032.1044-.127478.170621-.137277.091037-.109576-.104315-.099522-.076275-.100497.054894-.030416.094261-.050567.034828-.03801-.063887-.055191-.141562-.081789-.056379-.081789.024859.02452.112248.047597.061766-.013151.089383-.059348.041149-.010987.084335-.035422.112376.005133.156919-.09371.032919-.069572.124339-.050864-.026429-.013193-.080729-.025156-.082426-.10177-.031562-.037755.077081-.022399.026132-.036228.005218.02418-.062827.000424-.117339.029271-.122981-.096425-.044204-.038477.02732.00157.106309-.023247.154797-.095534.024223-.085056.069487-.126078.0014-.063887.033344-.022696.081917-.11017.084547.002079.101007.074153.102746.004794.089128.17639.090656-.010309.090783-.025029.042125-.066942-.016545-.142665-.078396-.14521-.016672-.04361-.036016-.017817.02592-.000848.060536-.056039.044373-.080941.0042-.094261.064778.067281.101855-.012514.040089.033216.048658.144107.008824.061427-.013066.006278.086498-.018793.086541-.058457.030926-.055615-.079414-.278118-.151998-.072711-.014848-.015526.047767.013448.062106-.058415.075511-.103849.098928-.070208-.026683-.08302.023162-.053918.169094-.018708.169094.092395.118103.061512.1559.128496-.191577.052306-.021975.000212.082723-.0501.086116-.029526.105673-.010309.119672-.083953.003394-.094601-.015993-.022781.03801-.035337.089001.020829.122769.062275.046537.145337-.004369.124211.008866.11017.044246.018708.037586-.099904-.021169-.203795.011624-.096934-.016841-.191238.007975-.143471-.070039-.07059-.070166-.1072-.017732-.104273.028083-.057779.098207-.070378.024011-.163536-.243077-.102194-.016163-.050779.056506.049549.152464-.02575.093837-.056039.069911-.07059-.004242-.043525.029653.034574.064057.111951.163239.092013.071269.081026.099182.041531.085692.098207-.00386.022653.069148-.056379.100413.001951.159082-.040174.008187-.05676-.035168-.11263-.098249-.058245-.019175-.030247.028338-.009078.067196.027108.17622-.057863.25118.01209.073093-.010521.062572-.047555-.045222-.058245-.097443-.119927-.15064-.147246-.328685-.155391-.222969-.084929-.189583-.130193-.35698-.06762-.005345-.086329.153525-.095364.202225-.064821.099437-.153694.099055-.094601.099988-.113606.03538-.124678.1142-.090104.098079-.126332.228527-.021423.147543.005345.155052.055064.220382.057821.319606.085777.033938.069275.05413-.019429.096595-.104612.060833-.321091.302468-.216479.107624-.061384.07602-.078947.1601-.114582.202395-.051755.127308-.120393.247362-.195522.276336-.198195.204643-.228272.163833-.150004.078693-.558145.22946-.297929.087559-.537825.063506-.22823.103679-.285075-.033683-.319182-.022059-.443054.34629-.367925.084165-.325164.063124-.140501.057015-.319988.199722-.186274.091334-.348496.102152-.14241-.010563-.192935-.093964-.180378.02172-.199595-.013745-.162603.008781-.126587.07759-.746668.413062-.147331.112588-.153228.163876-.220085.151192-.175669.174481-.369537.181523-.379846.137744-.188014.114497-.133544.155434-.233278.417771-.049294.105503-.093116.110042-.123448.040004-.079753.035762.027956-.209649-.089213-.186147.062445-.35575-.023417-.106224-.126799.06919-.080941.075511-.205025.514959-.140798.401184.106733.230096.034192.133629-.000255.143471-.037713.20651.002673.134393-.012514.178766-.256101.415098-.079244.180717-.085989.347308-.010478.161033.005897.240574.107709.210752.082553.130405.127435.377173.152592.250841.251519.504693.277948.409117.017902.156452-.031604.210667.015569.218133-.049888.064269-.107497.075172-.123405-.096595-.062275-.084038-.07848-.308916-.03258-.017605-.052773.135453-.057779.058754-.052815-.040046-.040216-.050949-.010139-.053494.01786-.063421.019132-.231623-.115345-.132229-.102576-.141986-.110594-.034744-.067748.064099-.002588.08811.148222.24698.094983.267597.147289.167142.08705.043228.096764.101897-.020617.225557-.07042.084038-.058585.042634-.190814-.049591-.043991-.162603-.149537-.319394-.048319-.12366-.041276-.033556-.016545.06096.003097.109958-.027744.047597-.029017-.004879-.058966-.057482-.053197-.030841-.032622.010733.058076.079202.128029.235484.472325.576938.400081.671411.088238.265306.043991.583131.039664.140841.236502.289826.230775.335812.068299.167227-.001527.143174.047428.135877.286687.368689.128199.395754.015569.144743-.036737.248083.033556.438345.032283.238114.104655.471986.124126.340096.147458.2116.201122.469483.306074.54143.049761.26764-.015993.711966-.021932.23209-.067239.039792-.044925.097995.065711.467277.015187.266325-.098504.250841-.111909.2228-.196498.152167-.222291.004921-.103849-.088577-.13189-.090953-.022738.405044-.002842.346969.04047.132187.003903.1559.149537.121114.083953-.046961.103934-.006448.360713.171809.202352.141477.326903.379888.289105.100158.376621.172784.43703.054767.349556.010054.549745.090825.117297-.032368.235569-.028253.179954-.059094.161967-.037713.482719-.353035.470883-.363259.233448-.028932.208758-.004115.254701-.124339.231623-.37607.117933-.083953.156876-.09388.445896-.055191.262294.038858.140756-.060918.356429-.068045.741238-.062572.407377.050228.272009-.008103.143937.024817.1128.164936.786374-.141859.223563-.009884.140459.023587.175754.123236.198025-.116533.177493.015187.180208-.112121.273536-.336618.123999-.210243.199468-.443224.147671-.159379.162561-.079329.189923-.025496.293899-.080093.637346-.373737.247362-.080559.130278-.070548.438854-.290293.275318-.055742.806737.075129.382518-.019514.295893-.045561.449502-.156537.489082-.117593.600482-.247786.502105-.256143.303104-.058966.478392-.045264.703949-.06656.819888.034447.207231-.052815.101897-.046919.143513-.049931.177366.034956.13575.038052.411747.204219.619275.430412.136768.01786.407929-.097952.136514.009587.570659.315534.236587.006448.189159-.007678.143089.033725.152337.085523.180081.198492.3815.190262.01892.153313-.027701.100116-.086329.003903-.072754.021253.091759.321346.160312.259664.384639.03504.139738.09091.090316.102322.069826.162773.052858.254616.192426.212322.179911.181141.04204.07445.084547.256695.032241.074917.070251.253683.102958.289826-.028423.029526-.061045-.006066-.108261-.073432-.094983-.082298-.051246.013066-.05816.056379-.00823.069445.085056-.018454.050015.010054.117424.088831.109788.102915.086795.060324.209182.256695.081535-.057227.100285-.050864.159082.13961.063463.028211.036143-.053961-.060112-.250289-.060239-.060748-.014551-.088874.07479-.063845.036525-.075978.177408-.187929.388584-.561496.119502-.064396.137617-.123066.185638-.093922.192086-.11157.122939-.043058.120224-.023162.13435-.103128.146695-.279178.110551-.331018.11789-.145846.180717-.155094.138932-.215927-.011369-.168966.001697-.17236.100285.133077.062869.135071.099607.451326-.085607.099013-.090359.049846.017138.158361.060197.206128.022441.164936-.189499.173887-.163706.218897-.196541.424643-.012854.128157-.030841.178596.011963.157003.030629.151743-.048488.235569-.079414.210455-.103679.005303-.07076-.007763-.155137.018666-.143301-.012599-.164003.459047.104231.021508.079414-.026089.143768-.000127.160524-.081832.234975-.067196.134053.023671.1573-.007169.228951-.588222.056591-.383154.116787-.171978.03644-.118739.060154-.112588.121751.193486.097995.187632.215758.304759.067366.151658.026599.369113-.139695.4274-.083953.122048-.101388.106309-.085013.179445.257119.045561.166463-.003309.260767-.130362.051882-.017563.130872-.002248.050185-.068214.128538-.064778.095492-.076317.124254-.060069.11263.039961.025114.03415.028338.038689-.041404.084207-.003309.178342-.073899-.019429-.065966-.10614-.082214.027362-.05727.07988-.122939-.025199.020193.052391.066093.102025.260089.196753.277354.261022.103934.123278.226236.392742.161076.416668-.013448.12332-.078693.222079-.057015.225727.004794.118272.052688.149961.113648.15327.423286.419128.223818.368392.29725.191026.481531.07042.254701.137998.263991.278372.084801.023756.128241.011666.16447-.169306.250628.017987.330042.168203.19688-.039664.139653.020617.196159.09511.286348.188226.304165.094855.18059.141901.140544.021381.251604.092098.185468-.078862.156919-.09931.363768-.344805.285075-.165997.149495-.064736.120266-.02855.152549-.107752-.095067-.076062-.090019.012769-.153398-.042846.087601-.049846.091843-.036907.442757-.257204.117466.07602.08128.085141.088238.116618-.066433.164936-.058839.077802-.136429.124508-.164597.004836-.078438-.010224.162518.139695.140925.09388.290717-.170621.072457-.134393.055064-.077929.092352-.017308.137277.026217.053494.098419.029907.119927-.099649.032665-.048403.088874-.033895.084504.173378.108345.089044.068766.107412-.001739.124169.016545.09371.15904.087686.183729.103891-.050652.064948-.048234.111103.04624.120308.144362.097528.164173.010096.06902.075256.031774.071141-.048658.034065-.069148-.002757-.127478-.018835-.201122-.049803-.030247-.113394.108982-.064015-.078862-.08705-.08408.00157-.080644.094304-.040343.079838.017563h.099776l.528492-.070548.676205-.646891.29602-.237435.307898-.17622.318631-.113182.165445-.036822.85531-.061088.444878.019811.228993-.044798.10614-.059688.180166-.163409.125951-.099946.15484-.027956.037119-.122302.000764-.131084.029398-.136471-.044882-.25661.012175-.337678.03504-.17622.093625-.247277.040852-.254574.042125-.360756.037162-.213849.046197-.195395.121539-.215503.102831-.139653.242696-.525522.084123-.051924.070081.000127.030544-.031986.009418-.029229-.020744-.021041-.03101-.061003.020617-.049294.073602-.049252.023332.018835.037671-.01069.005727-.026938-.035337-.143937.051246-.202183.062063-.353205.070463-.158658.041276-.126205.162645-.189541.177748-.186784-.050652-.02032-.083317-.013999.054045-.044798.042422-.013151.053918.029526.044713-.082086.010181-.12892.043143-.190262-.038477-.165912.082129-.051882.093498-.031307.039368-.17393.02558-.069826.058118-.065033.097443-.13855.076147-.144277.181396-.2757.177408-.11263.263567-.087601.029907-.049803-.067239-.030332.002503-.030289h.099352l.039877-.096722.105121-.071226.174651-.164682.057991-.151319.036059-.120987.01752-.273833.284354-.359271.19845-.485815.047979-.311886.049421-.168372.033004-.247107-.030289-.257161.008569-.215206.197813-.547794.044755-.226109.060918-.145125.093668-.540497.001315-.280875.143259-.326903.178723-.265943.015484-.246259-.059942-.189371.008187-.396645ZM30.674754,40.961551l-.031604.020829-.015187.034913.000424.045731.114285.024605.029738-.014508.047725-.042464-.022568-.107285-.052688-.053239-.070123.091419ZM53.930557,30.144396l-.008951-.110848-.062021-.050143-.033895.026344-.082298.094855.028592.051373.016799.086201.009672.116957.054555.157725.024986-.009842.064184-.062403.036016-.205958-.04764-.094261ZM56.267579,33.685859l-.011242.050015-.003309.077887.06533.15484.015357-.031053.010648-.094601-.052858-.172403-.023926.015314ZM55.427965,31.804279l-.074917-.111612-.110891-.106097-.120139-.093752-.072075-.030798-.077462-.018326-.065669-.045561-.118527-.213594-.062148-.053367-.119884-.083232-.037246-.046197-.013999-.064227-.116533-.196032-.121454-.10037-.158828-.023247-.06533-.034192-.057524-.049888-.054427-.012133.014848.12612-.040343.252368.015229.086838.047937.143683.028423.049209.110933.113521.087728.055954.087728.129684.043313.029907.197686.092565.040598.130193-.032538.144234.065245.124211.104824.119757.104485.076444.117466.05956.121072.032156.127944.008569.055403-.035592.052094-.048573.109067-.042676.028932.044034.02295-.020278.030629-.117339-.037628-.152422-.056973-.119502ZM56.378512,33.236314l-.098758-.048361-.073432.08302.01069.084759.126502.122811-.000891.075511.030544.021169.04187.067748.024011-.017266.025283-.057821.103212-.124211.023671-.069105-.114751-.034022-.097952-.104231ZM55.205462,32.484429l-.034447.095534.07759.040258.12612-.02995.031138-.067536-.157767-.08811-.042634.049803Z" fill="#000000"/></g>


</g><text id="svgAttribution" x="5" y="355" font-size="6px" fill="#000000" text-anchor="start" dominant-baseline="baseline">© FreeSVGMaps.com</text></svg>