<svg id="mapSVG" xmlns="http://www.w3.org/2000/svg" version="1.1" xmlns:xlink="http://www.w3.org/1999/xlink" xmlns:ev="http://www.w3.org/2001/xml-events" style="overflow: hidden; " width="360" height="360" viewBox="0 0 360 360"><g id="viewport-20260421170437689" class="svg-pan-zoom_viewport" transform="matrix(3.5999999046325684,0,0,3.5999999046325684,0.00000476837158203125,0.00000476837158203125)" style="transform: matrix(3.6, 0, 0, 3.6, 0.00000476837, 0.00000476837);">
<!-- © Copyright FreeSVGMaps.com, Striped Candy LLC All rights reserved -->
  
  <g id="mapGroup"><path id="mapPath" d="M34.400263,85.615611l-.106217.142059-.298492.088137-.065493.088861.017899.045425.028068.150602.072725.142737.035526.092251.070962.140613.035752.051165.052566.247192.120048.155619.285475-.043436.164885.024995.025402-.040724-.068114-.285836.024136-.055007-.003028-.038916-.016995-.0466-.065809-.074849-.050849-.159642-.017175-.103053-.018803-.033492-.101561-.081312-.054781-.0979.025085-.29013-.091211-.018757ZM33.390299,86.891388l.03756.306176.150557-.001989.102013-.072679.279283-.085516.089041-.083663.004023-.338448-.160455-.353499-.08407-.246559-.070917-.092522-.226355.087188-.014464.042668.024046.103821.059481.12624-.01261.167732-.177134.441049ZM34.255447,85.369775l-.11485-.006915-.151506.063504-.077425.060928.089222.09207.011345.055504.098443-.022102.037108-.022419.044385-.040814.18084-.074533-.013966-.056905-.103595-.048317ZM15.154801,17.518421l-.04086-.012972-.140071.056046-.075934.094375-.084928.044566-.087098.081945.007955.033085.033899.026984.054374.024633.157427-.054871.080951-.112861.084883-.053289.047459-.076431-.010757-.031639-.0273-.019571ZM13.574384,17.289309l-.082849.085109-.014012.126195.207326.128681.069877-.002305.025989-.019074.072679-.020204.091392-.110556.009899-.15137-.112409-.079911-.267893.043436ZM29.128244,62.98992l-.027888-.01035-.024588-.004384-.014509.001718-.066668.055594-.055052.045651-.01356.02626.008136.00904.239643-.03182.039368-.007277.007729-.021289-.021017-.025673-.071595-.03747ZM33.739278,87.877217l.170173-.155709.197383-.263554.011209-.136816-.01591-.10929-.157246.009718-.081674.055097-.258356.068521-.059888-.021153-.063956.035617-.048182.046555-.02504.097494.082488.065764.048182.013334.034215.03634.035978.125607-.113946.097403-.091347.097629.081312.059753.099301.001175.155303-.123483ZM37.862256,95.983691l-.088544-.069244-.115437-.161856-.03078-.019571-.27178-.055007-.165653.013514-.097403.023684-.018803-.02834-.036069-.14789-.032136-.071278-.031639-.035345-.068386-.015458-.04217-.036611-.027662.004249-.048905.051707-.005966.041628.021379.116296-.356392-.075979-.108567-.109471-.320233.030554-.212524.216637.272729.044701.080047.155348.148071.147348.148206-.022147.047187-.002486.013966.011932.025989.114985.002712.080002-.025763.15345.009944.044521.125788.076793.121268.043165.05243-.020791.013243-.036701-.019661-.11381.016724-.074397.044927-.077742.073855.050758.064318.000497.086103-.022464.144365.029786-.023955.164794-.133743.15919-.102827.044611.016724.048046.051933.041447.048498.021831.04095-.002667.069199-.040362.149834-.04443.152003-.009537.123528-.084386.082894-.043888.052702-.042261.004203-.073222.079866-.144139.134828-.10007-.135415-.149924ZM36.109994,95.080892l.028294.042216.017537.085832.020746.012068.088589.021108.122579.003751.245564.068883.121042-.008181-.010893-.023594-.212795-.14798-.010531-.021469-.187484-.187484-.072182-.007819-.059798-.025989-.140071-.101245-.170851-.024904-.130263-.079414-.249768-.084838-.278966-.035843-.074035-.029334-.052656.003887-.021921-.016407-.04886-.112635-.069922-.044069-.129675-.116161-.131619-.067482-.056227.026758.000633.035029.122488.120274.082397.157427.192456.132116.192818.156839.045244-.009175.13076.025447.19336-.026712.169902.038238.098172.043165.235937.197699ZM35.031463,92.589722l.113584.094284.074307.037108.148478.041673.039956-.019707.031187-.035526.00461-.040453-.024-.031368-.19214-.10572-.064996-.073809-.048724-.034803-.118556-.045877-.032905.001356.051165.115709.018034.097132ZM33.859416,89.070372l.178038.01478.135008-.006283.046057-.028023.050894-.146941.003571-.253791.012746-.072001.02834-.054058.289181-.191552.026803.00235.006644.022825-.010983.026577-.072137.063956-.031865.046374-.009582.154851-.063278.050171-.030645.100748.002441.058532.078194.153043-.003706.114217.018531.087459.064001.142466.07973.013605.145269-.021967.033311-.027752.03643-.124748.062148-.103912.032272-.12746.017582-.165337-.016091-.039187-.060069-.015594-.008407-.063595.051436-.313995.022464-.255056-.01252-.253429-.072905-.577639-.020656-.078555-.02739-.020837-.113584-.008407-.127234-.07042-.062555-.006554-.137449.048317-.097991.099844-.015006.047368.047549.121494-.005379.12172-.117517.106714-.19675.106081-.034667.111189.155709.064453.010305.146625-.174964.039052-.070555-.051707-.07625.009989-.142421.092341-.045922.06373.051662.085651.086465.093742.078013.05469-.041718.232728-.245655-.011345-.06599.130941.027164.1638.13189-.037153.201993.134873ZM13.624871,18.249012l-.060476-.02504-.056634.103776.073719.056996.054148-.002712.059888-.063369-.026215-.03982-.04443-.029831ZM34.707388,93.152536l.179348-.300571-.006644-.048001-.147935-.176591-.136455-.025628-.04095-.048408-.057267-.346403-.11598.03521-.007367.157156-.124251-.025854-.130037.11598.073086.205202.044882.239327.132929.204614.088137.212253.2104.015232.038102-.213519ZM34.096844,89.432549l-.116477-.017221-.156433-.058577-.056453.176004-.010486.096544-.028249.04321-.019074.111822-.049493.151732.188885-.000497.076838.058171.261565-.140387.122217-.102827.166874-.070013-.04999-.152546-.171529-.037153-.158195-.058261ZM34.345392,91.848328l.111505.010396.074759-.03982.088906-.078646.053741.005017.094104.045199.037108-.014554.042396-.047233.002983-.148523-.01582-.056001-.054916-.067753-.16728.000859-.193631.127234-.212479.068521-.151551-.069742-.075301.185179-.038102.124568-.082307.182783.014644.122624.129268-.104409.061696-.075256.132251-.223643.148026.053199ZM33.988729,90.352206l.057448-.046148.06034-.077109-.0546-.023955-.197292-.022464-.165744-.006011.010531.087369-.0306.114353-.046464.103143.033085.049764.018893.103053.036295.040905.108206.014102.038057-.162534.012927-.146037.118918-.02843ZM66.32852,16.951539l.123844.08538.365748-.259938.003028-.034261-.021921-.063549-.131438-.02278-.102827.012384-.204434.073177-.04104.089087.00452.021289-.021063.049809.025582.049402ZM67.157826,14.08757l.133472-.060657.009221-.0546-.066713-.215462-.027616-.016859-.074985-.009311-.09668.043662-.024046.131664.070691.15815.076657.023413ZM67.326552,16.294305l-.096951.129178.007593.121042.072001.019616.230649-.005876.147935.082714.114217-.008091.104454-.039956.189473-.277701-.054781-.06929-.188207-.048363-.332979.103641-.193405-.006915ZM67.954995,16.670991l-.036656.05582.162128.066216.354267-.041628.084341-.075617.01139-.07512-.037651-.074533-.13772-.03521-.132025.027933-.147257.063143-.120816.088996ZM67.486601,16.080063l.150964-.172388.004339-.09564-.02947-.057402-.053244.017311-.018893.026938-.185089.025582-.040769.091618.000181.166874.027029.04208.144952-.044973ZM67.121305,16.41711l.125472-.159099-.01374-.16276-.011254-.265859-.029108-.012113-.032272.012565-.037018.030735-.002034.177088-.03408.130217-.099844.106262-.11259.055911-.018034.199778.240638.082442.023865-.195168ZM74.447921,18.416654l.085606-.063956-.006915-.05451-.120861-.012701-.02269.106669-.020882-.003797-.012882.036747.070872.024452.027752-.032905ZM68.312652,16.912397l-.124974-.005831-.828492-.149834-.285294.054464-.245926.153314-.064499.12172-.02956.140477.016995.077425-.022464.072905-.068838.082352-.012791.059029-.020249.287464.017085.138308.098533.089448.156026-.006328.021424.040091-.004791.048272-.02052.010622-.096861-.022419-.08181-.005107-.040453.150738.048046.174422.067436.192004.07512.16163.020249.079821.126285.119912.085742.016859.140523-.059436.306357-.010757.058261-.058532.074578.006237.13189.072408.142014.036204.075391-.046329.131302-.022961.083798-.034125.083166-.108884.025492-.157924.133788.058397.082578.052702.148206.00574.039052-.053877.030916-.098352.011978-.096138.114805.122895.064679.011887.070284-.01243.07625-.029696.127505-.122624.039458-.083798-.033357-.066984-.014283-.066397.066623-.070691.082036-.055233.032001-.033357.107618-.159054.071098-.124974.028656-.060159.013153-.061877-.036069-.15476.057945.009175.034532-.035119.044837-.172885.048046-.12389.064634-.117788-.017311-.073674-.069335-.033899-.094872-.031323-.097087-.022102-.265452-.021379-.441907-.069018-.131121-.006463-.132613.012158-.118511.062148-.176953.025176ZM38.591672,96.90832l.121178-.008091.150421.037199.113403-.026577.225541.151687.215824.11137.034396-.014238.046193-.09207.073493-.06477.030916-.063414-.024-.156207.00122-.091708-.196343.001446-.296458-.146444-.218897-.140749-.201903-.059933-.389567-.070465-.096906.066713-.103098.032181-.086149.199688.159009.130308.159371.16258.031865.172343.175145-.044927.075346-.085923ZM12.920178,17.392859l-.012701-.026215.02382-.066939-.033311-.143867-.268345-.257497-.045244-.244028-.083075-.085606-.044882-.088047-.074397-.045696-.173337.027436-.024317.056996-.1172.079911.00904.022419.053606.042351.108703-.048272.053289.017311.079776.350471.160049.114805.070148.163845.101742.082488-.031729.084702-.253293.110782-.16606.12389-.049628.081584.015865.084567.086239.095776.063549.026938.321543.00348.301611-.105042.141562-.250355-.084115-.106624-.128907-.101561ZM12.330471,17.161125l.000768-.130715-.081267-.088725-.249452.038238-.009989.035165.010125.106127.047911.070555.112861.045515.13424-.023051.034803-.053108ZM13.158963,16.81522l-.05347.04217-.063369.105177.07851.077064.252163.046329.062239-.040227.027571-.073809-.152726-.117652-.150918-.039052ZM53.189174,4.358373l-.083437.017492-.043029.062148-.002576.035843.160727-.043933.041176-.052024.072951-.034984-.030825-.017582-.030374-.002576-.053199.014328-.031413.021289ZM30.060783,13.254603l.036249-.029334-.007277-.082216-.024724-.040634-.05451-.016181-.042396.049402.023594.066306.069064.052656ZM53.094302,4.521088l-.03869.020475-.141381.10798-.024995.036249.012339.134285.082985-.02721.108974-.042758.073538-.067391.016362-.061741-.067843-.048453.007141-.028792-.02843-.022645ZM47.276644,2.087727l.072047-.030148-.018757-.032001-.101335-.058623h-.10816l-.042035.048317.06608.042306.132161.030148ZM48.677306,2.010256l.077651-.023097.079866.077154.062148.022961.081764.004203.101516-.008543.121087-.118647.013108-.03295-.042894-.175732-.058532-.048724-.152681.132839-.028114.089539-.112952-.005107-.096318-.050171-.0386-.05799-.048227.007774-.132251.038193-.071776.094556.053289.026984.191914.026758ZM36.017156,80.113666l-.050035-.003345-.074307.024543-.050171.089991-.001944.062781.024498.052476.087324.111144.013469.074442.040362.056408.039775.002893.043662-.018803.020837-.112861-.015548-.118647-.017356-.11494-.060566-.106081ZM82.391679,34.529577l-.020837.040679.03869.052069.020927.053334.053108.011932.045877-.07973-.004746-.097855-.097629-.003525-.035391.023097ZM34.170518,80.706311l.033402-.027029.013695-.032362-.02165-.076702-.041538-.047413h-.037334l-.046464.033763.024.089403.03408.052476.041809.007865ZM36.513979,80.089168l-.118601.106307-.055368.073855.033402.137766.03078.081448.062917.096951.16258.044069.324029-.131483.118963-.112002.069335-.120952.108658-.146941-.016452-.066352-.088363-.083482-.248683-.120771-.239779-.080499-.069922.025085-.015458.071911.007413.075572-.021334.080906-.044114.068612ZM35.210992,77.722927l-.112048.172026-.018983.074307.043346.051798.155619.089584.166015.063414.166467-.002079.095234.024859.093787-.008362.100522-.033944.047504-.088363-.015729-.214423.133788-.051707.145449-.086465.091166-.130127.048543-.091708-.099482-.144365-.076928-.138037-.140116-.092296-.125426-.132975-.029967-.058216.099663-.066035.0819-.025808.02617-.032995.113177-.025085.104951-.042306-.071911-.118511-.011028-.125607.12511-.058758.021876-.136364-.042261-.043255-.031142-.190377-.052385-.106172-.014554-.13537-.271599-.030464-.408822-.130715-.035255.043572.043481.049945.015684.059075-.050894.178354-.00339.086329-.017311.079504-.117517.177314-.013514.084341.007955.090759-.012972.090126-.026034.087595-.007051.072905.05686.175732-.071098.464778-.10685.324572ZM34.930896,80.445469l.107076.192772.09207.075165.109562.244344.097268.141743.141698.084115-.013108.214468.110737.032362.223688-.007141.01939-.023277.006192-.071233.078691-.01148.025266-.016181.032001-.1172.008678-.063278-.007277-.06373-.079369-.141065-.011887-.090714.004294-.054103-.047775-.174603-.066216-.182783-.055052-.121856-.111596-.104771.008-.086962.01704-.070826.161811-.081584.103957-.012475.065809-.070465.042306-.113313.000633-.083979-.153178-.064092-.062555-.081177-.047639-.082623-.126692.008814-.117517.075572-.033809.146399.014554.185947-.047594.043526-.106533.018079-.118692-.05121-.161088.065176-.107121.062465.028475.182286-.183552.104138.159054.164749ZM87.994598,26.442403l.01487-.142195-.038012-.352369-.056272-.028701-.005198-.126466-.066487-.164342-.078329-.522-.143461-.277927-.061922-.357522-.125291-.467038-.210083-.420755-.119189-.112997-.090578-.048769-.575605-.099934-.243214.05243-.300842-.01261-.272774.017673-.209451-.062419-.152139-.111957-.125381-.039775-.293882-.032362-.16954-.265361-.434405-.161088-.226445-.249949-.338583-.250039-.298221-.357024-.120409-.095234-.152274-.211485-.281407-.084838-.280503-.202083-.158286-.148297-.452394-.256503-.211982-.095414-.131347-.09216-.21718-.093652-.257904-.165246-.361906-.064273-.319871-.023323-.536282.098398-.426495.021876-.165382.066668-.216276-.02626-.214197-.050351-.109336-.092702-.206287-.082804-.165382.079052-.334018-.018712-.459942-.17406-.110059-.094872-.209134-.079866-.139664-.085787-.391737-.104997-.201134-.013198-.072905.049945-.027436.117426-.365703.021469-.181653.102691-.091527-.015865-.107437.077968-.23996.222558-.043436-.072589.044882-.073629.105584-.13433.015096-.05112-.005605-.088544-.098759-.029605-.065809.000136-.106398.084928-.097629.270107-.075391.273904-.247508.257226-.13424.088906.002215-.08312.110194-.504914.037696-.113765.029153-.137494.036069-.065448.055323-.057086.000723-.100703.184908-.053063-.012701-.12746-.058984-.134963-.113584.02956-.078375.053334-.111596.189744-.051075-.070194-.074533-.072996.065312-.032362.065357-.018079.055368-.100205.049764-.050803.056498-.081267-.012023-.141427-.059979-.13885-.079776-.127551-.093154.061741-.076973.008678.076702-.086781-.091844-.011571-.051481-.070555-.122262-.110059-.141743-.10016-.067662-.06251-.141381.053922-.075527.162715-.058216.089177-.062871.027526-.031955-.199191-.141155-.280503-.131528-.034035-.117471.022871-.179213-.128952-.258717-.084205-.09677-.112048-.128048.020339-.099753-.024633-.005559-.091121-.135958.010531-.134918-.012068-.126466-.044114-.134963-.034848-.036385-.072047-.167777-.106081-.055233-.075527-.110285.000271-.067708-.048498-.107347.009085-.136816-.006373-.098443-.086284-.09103-.046555-.173156-.024859-.054781.027797-.028475.044295.036701.054329.019074.058532-.069606-.023097-.115844-.104454-.125336.064905-.048227.008045-.059346-.019119-.056453-.044747-.045379-.017627-.10129.039684-.103731.101335-.095731-.085742-.048498.011435-.061877.031639-.017899.076612-.097991.043481-.08651.089267-.06834.086917.014825.105313-.191688.140387.055142.111144-.092476.125743.012972.093019.022147.055775.135958.061515-.128409.050849-.022871.124296-.089087-.061741-.094194-.104545-.147122-.001446-.376143.454473-.218626.064725-.075211.050487-.262921.568599-.066668.212931-.088815.122669-.06947.045967-.081086.033854.049764-.097087.06147-.085064.062058-.31847.062555-.117969.082307-.292209.113539-.318696-.363262.180026-.179439.078601-.245293-.074081-.128681-.051526-.156975.034125-.074985.051391-.117381.035526-.190919.122986-.243847-.220027-.071098-.043617-.068566-.073583.019707-.088996-.004881-.067617-.14337-.204434-.043436-.151054-.009221-.086103-.025447-.113132-.070329-.082126-.027662-.065357.106488-.101471-.005424-.052159-.070374-.082397-.129901.06477-.049357.060792-.231869.13867-.127053.115618-.31273.173473-.153856.053425-.402856.255644-.333159.070962-.151913-.107076-.473185-.010396.148116-.05008.433455-.20136.279192.048543.053018-.041266.061922-.063323.017175-.185224.137088-.083798.131754-.13198-.00122-.216456.025266-.123799.197383-.28317.07851-.052656.123257-.155122.1398-.284119.022283-.124296.242039-.071685.180298-.214513.07616-.040814.125426-.015368.081945-.066397.23205-.262966.158512-.287961.160094-.151054.065312-.1125.298763-.238287.03182-.04895.146127-.092296.052204-.055233-.009808-.140884.03295-.200411-.101019-.318786-.130443-.094149-.177766-.073448-.156026-.015503-.206694-.042442-.101019-.12972-.055504-.094782-.043798-.140252-.06721-.035707-.074171-.004068.050577-.06034-.002893-.04104-.077832-.221202-.07051-.13424-.035888-.126602-.014283-.104771-.223236-.565887-.077877-.271644-.031955-.518429-.192094-.561277-.143325-.174512-.17971-.118466-.114443.003842-.014373.102601-.126647.229519-.007458-.049447.006463-.053606-.016769-.119822-.043888-.077199-.116341-.37759-.056001-.086781-.070555.002622-.052566.145675-.010848.117381-.036204.049312-.064408.062239.001672-.045153.029876-.05808.023323-.1125-.067391-.17519-.061244-.095008-.216456-.193586-.13989.122353.04773-.140071-.00217-.088002-.218536-.105403-.415918-.335781-.179665-.201903-.496146-.157517-.246152-.026893-.525163-.291531-.097268.017627-.0932.123935-.127957.352007-.094465.070374-.11268.094239.000045-.000045.112635-.094194.100929-.190874.046193-.142059.011435-.148749-.022509-.116477-.117833-.064589-.285927-.071324-.638567-.10459-.420664-.006825-.308978.054419-.359691-.04434-.240502.032272-.10929.09207.019255.129494-.002802.128138-.056092-.128138-.395895-.119822-.308119-.069832-.673686-.073493-.116115.072273-.064137.14563-.04199.12285-.006418.124477-.055233.153088-.01695-.025989-.014012-.02156.050894-.426992-.03078-.282989-.049899-.10816-.155257-.124929-.26274-.079278-.090171-.158512-.247779-.197609-.2537-.249949-.119279-.046329-.135144-.011752-.167958-.066578-.155845.037515-.116748.156387-.08981.142421-.032814.234446-.105584.080996.07955-.149065.007458-.259847.033402-.195303.136862-.259576.004384-.384053-.045199-.096499-.154489-.197518-.099573-.081132-.147754-.172297-.51974-.453162-.369951-.239824-.253022-.145314-.097855-.023187-.000859.055142-.022464-.00104-.106669-.045922-.192727-.212434-.049312-.022328-.200547-.090533-.23101-.015774-.085923.024769-.102963.084296-.427218-.060069-.085923.017853-.228344.114669-.210987.007367-.147393.103279-.185315-.131483-.112771-.050125-.12276-.068657.496733-.003887.09546-.167326.07155-.157924.031458-.131121.007819-.032769.052702-.093019.000678-.080182.040001-.079685.069696-.081177.173925-.064951.064815-.130037-.10911-.124116-.186264-.138218-.295554-.055142-.100251-.047549-.271373-.287599-.102375-.063052-.048815.104725-.187936.003525.008995.07964.036701.069696-.005605.09555-.030509-.060747-.062329-.038916-.034487-.036882-.008181-.065764-.095369-.117788-.144319-.11372-.081041-.0273-.05686-.013153-.047685.007503.010486.034622-.030554.099211.022645.07738-.024859-.006599-.024678-.020746-.041086-.054193-.047594.085426-.032001.034758-.025582.006418-.027571.00687-.107663-.181518-.152726-.34586-.047097-.032633-.06703-.022554-.009944.072273.009944.062374-.067753.062103-.119596.019481.06138-.058984.04425-.132161-.032407-.122443-.02739-.05808-.100205-.088861-.042396-.000904-.040227-.024181.00009-.119957-.09442-.032588.294243-.042306.419308.02165.196659-.117019.257361-.015277.15919-.048498.056001-.080002-.485117.055685-.615199-.067527-.326786.057448-.118692-.017537-.206468.01469-.410404.088589-.503649-.027571-.439286.041764-.128681-.0033.067753.124342.119822-.049267.394765.02834.174919.073538-.063052.042306-.073086.031368-.474225-.012475-.885442.482948-.12511.004113-.105991.024633-.141427.008859-.251847-.070194-.229926-.049719-.222649-.092657-.261972-.039368-.319193-.28891-.002215-.059301-.018351-.077245-.189021-.077425-.992021.029018-.192908.054012-.599109.062736-.388166.06938-.358832-.027752-.125833-.102646-.083211-.161495-.037967-.16041.070374-.095821-.070555-.093154-.024543-.139167-.074171-.145449-.290944-.199643-.28317-.164659-.303057-.039413-.237971-.07729-.392008.025492-.058984.018938-.082623.007413-.107392-.113403-.067482-.150602-.064408-.216637-.026848-.21388-.039413-.078917-.072544-.081448-.119822-.085335-.157879.05564-.10798.051572-.056634.127867-.055368.158286.088951.210083-.000136.066261.036837.075753.376595-.063956.125155.000045.059436.176049-.042622.090307-.107754.040227-.218219-.115709-.064951.014192-.084024.123392-.097042.074126-.41863.150195-.367646.071233-.593504.280955-.274356.047549.011209.172749-.111641.076521.035797.210807.031594.119008.042035.085968.101878.275848.166376.161269.073493.173111.167777.24335.038871.170851-.034396.261474-.009944.217812-.159823.168546-.048182.08303-.075617.04669-.319148.10355-.110872.000497-.089855-.032905-.071414-.082216-.055097-.155574.027526-.114895-.060069-.067888-.090081-.055233-.138082-.16832-.02269-.11833-.159913-.233451.210129-.39237.094872-.079414.122036-.199688.172071-.171574.094239-.286921-.005469-.092522-.123031-.146805-.054103-.214016.073855-.002757.04556-.022554-.200411-.163438-.058351-.074397-.149608-.30152-.013695-.091979.000407-.117291.06608-.05121.051978-.026125.508485-.123076.098714-.049041.087098-.080499.03973-.063278.047504-.075979.196433-.172569-.023684-.158783-.143235-.230784-.310063-.130805-.138353-.002848-.156613.019435-.273542.149562-.016181.053334-.051978.042125-.113629-.000181-.107844.067256-.039458.173021-.14676.230378-.230106.117923-.36742.120635-.791022.560509-.486112.032633-.158873-.00565-.152274-.044656-.199959-.042713-.112093.026622-.076567.074171-.025311.215733-.10807.205835-.067165.186219-.067798.065176-.079414-.029379-.074894-.101381.032046-.096725.110646-.043978.076431-.010079.029696-.029605-.165879.01026-.521954-.162263-.102963.070148-.269429.251621-.167009.117155-.043662.075301-.221157.156297-.062555.111822-.081493.268435-.156659.176365-.050125.071052.088499-.0386.112048-.086239.026486.041944-.076657.106488.004294.178625-.059391.212524-.057402.140161.059753.096499.042442.159958-.04782.118014-.155393.04669-.199823-.02052-.163438.087324-.144771.13415-.189021.370403-.551605.394087-.150964.072318-.114669.027842-.043391.061787.064499.081584.071685.064273.062239.206196.03973.412393-.05912.09433-.107437.018215-.03973-.028746-.03747-.045108.016633-.080454.057628-.039187.023051-.037153-.052295-.050125-.059979-.025221-.075482-.138398-.184365-.200953-.175732-.124613-.11042-.191326-.040227-.028882-.025176.018215-.073945.105449-.040362.090217.095279.095279.028611.101064.054012.109878.08407.110285.094058.20484.021786.082081-.026712.05338-.089584.032588-.083753.095731-.022916.116884.016.057764-.250762.18649-.064544.031006-.042848-.028746-.05347-.093606-.063866-.075617-.034351-.026351-.019887-.00122-.020068.017401-.00913.041131.033221.175145-.027797.071143-.085064.0546-.097448.285113.130308.122895.164162.236118.046961.121132.058442.043165.101833.192411.116522.003706.093697.153043.011932.094872-.051346.306085-.055956.004339-.044069-.018531.004836.145178.166828.241813.127596.286831-.100748.139348-.280548.184546.177405.161133.038057.12285.018848.144907-.010125.184591.036521.316978.043978.07164.027074.083844-.036611.170218-.019571.158195-.033673.102059-.081222.067482-.042261.061967-.0932.059527-.00687.0579.149698-.046509.005695.06251-.038871.092883.008362.093787.092386.153992.107211-.15137.039639.023323-.020249.196569.068883.034306.060702.00687.053154-.058261.066939-.009582-.221926.436167-.1092.147077-.042939.167777-.081041.00904-.073629.143596-.064273.097765-.051933.112093-.097494.03295-.082442.014916-.009763.043074.039956.117291.001446.053832-.142602.121675-.041854.054419-.007503.03991-.081493-.012656-.035119.035933-.042125.092522-.073448.080047-.057493.034487-.048769.045108-.071369.027842-.235485-.02965-.06251.066352-.098985-.030464-.058216.017853-.099347.061606-.07616.089132-.033899.066216-.015458.332979.104499.176184-.035345.199145-.288955-.099573-.220253.128229-.090623.170761.18319.132342.038509.091256.043617.211801-.097087.119144-.440506.135099-.316029.05912-.197609.118104-.171213-.011435-.073041.076386-.144003.082442-.177088.034035-.069968.066171.03643.255689.048182.241903-.028249.338448-.116703.214423-.138534.14215-.112726.070058-.215281.268887.018712.090036.111686.196479.136952.048543-.101697.006102-.129811-.052656-.066306.130624-.065312.218038-.09329.067436-.29117.100974-.081538.138398.110149.274898.024859.12963-.044882.330809.096092.253158.00339.148297-.013062.188795-.130037.085787-.127279.063911.014961.06138.025989.044747.124522.106172.206196.063595.313905.304504.095686.055775.125472.051572.039368-.055956.008904-.045289.162444-.135777.09903-.183009.062103-.049041-.031458.269701.055052.029198.084793-.040136.060566-.16597-.017537-.369364.068566-.104093.012746.057357-.009537.07616.023187.250762.102827.170263.020882.125562-.124116.262966-.132206.41637-.055866.08981-.084657.093652-.098533.061018-.079595.066894-.191552.067075-.028837.017447-.239327.143867-.199371.188976-.195032.123528-.124839.200275-.454744.469207-.068431.117065-.071459.462202.063143.121449.12615.158105.115754.197518-.056453.098533-.022645.086917.300255.410675.08181.21275-.00104.165111-.064092.109064-.081584.026803-.133969-.064679-.096906.083844-.02165.089448.051436.15241.111776.096861.330086.203801.937873.489999.154127.15928.120771.177088.190829.220027.192863.305905.0386.164704.282989.556622.086103.1172.198513.165653.203439.217903.116161.260118.218174.284164.010215.165201.120364.308797.112952.248502.179846.28665.119189.377273.108206.212253.120319.373883.120545.230287.480552.773847.096002.249135.034396.230649.007187.126737.432325.329227.119822.17632.083798.35029.006554.184501.120409.062691.032814.088861.058894.062691.216592.174603.099121.240728.16163.271147.109516.128816.071007.217406.100025.169676.272412.353182.053063.194852-.100703.389251-.080544.025221-.076205.056363.106217.115618.010712.250175.152274.126827.051707.126963.17406.238061.096861.186987.262333.205473.272864.155167.183281.264051.163167.114985.112364.193089.115392.124839.734569.390788.243395.183823.301972.106985.430743.3276.130082.066623.438111.140026.182241.114985.409229.180614.219033.127912.436258.127822.140658.091392.125562.138308.210355.172749.193089.08416.131754.119053.125562.065357.323939.130715.128816.098172.048769.076612.046103.272051.037425.084974.374923.264955.15363.07729.166105.165382.43576.309295.098081.09329.075708.072047.03417.271147.001627.31969.079007.606385.087414.30265.016136.17406.054736.128319.012384.137088.000949.587538-.061787.417907-.00452.269023.145269.733168.011209.144139-.010079.189563-.056227.20579-.034035.314673-.040634.150647-.057628.305046-.041447.50722-.096499.409545-.076838.16954-.080906.090488-.151822.032046-.007593.163167-.032769.115211.007006.158512.101878.160727.123483.064227.036475.052611-.023594.126014-.104047.177495-.02626.146353-.016904.116613.016904.227033-.052159.284797-.037018.441591.020656.189699.151506.557933-.00913.112274-.049899.176727-.118511.157563-.073357.082488-.107934.338945.018848.109471.085787.187168-.035797.331442.020927.148206-.054012.131799-.028656.250039-.126421.348617-.013108.156885-.113855.339261-.021876.172569.006644.282989-.022102.119867-.026712.041944-.142918.157337-.045289.1252-.090895.359194-.042713.452303-.107528.187213-.053334.238242-.103415.15363-.146444.110782-.034306.103008.044656.393771.177269.220705.035526.134692.01469.300164-.04321.412574-.070013.305814-.359827.273497-.052747.435128.004384.192094.069199.333205-.010802.268435.113223.480462.068792.455919.017175.593775.122669.264729-.053696.223779.012294.180433-.186942.460303-.058171.078872-.143641.107934.062013.288774.001446.208637.079233.134647-.03756.199191-.222784.249497-.03078.104771-.097494.18875-.101561.224366.015142.184727-.052476.198287-.033718.293656-.169133.458495-.055278.265587-.217903.217948-.091256.151777-.06712.160681-.076069.088454-.082714.121765.04886.263825-.128409.178083-.127053.154353-.128545.627312-.124703.224909-.051843.161404-.14911.068702-.026351.17058-.018034.116748-.028882.271734-.057628.17397-.073719.062193-.138353.025944-.30369-.055052-.042758.102917-.038464.131438.078872.212343-.08181.171393.003706.166602.193993.327103.06947.200547-.009447.138805-.081177.366606.016543.221157.052747.178038.340075.935161-.031368.30943-.214603.574701-.096047.102285-.25248.171077.002124.187349-.097674.284526-.055549.32412-.182241.637663-.084657.162896.023729.228479.119912.31969.028294.202309.05921.113268.133878.089539.11598.012294-.001537.048769-.084296.043662-.045153.084974-.017763.079866.148568.049764.137404.037425.373748-.025899.090533-.054736.21275-.323623.08312-.046419.097403.00452.100115.042713.180976.183507.092205.039413.078149.010486.153314-.071414.091301-.210581.055052-.023684-.056318.239417-.168003.116477-.232457.032633-.112093.092838-.053696.073855-.053786.099166.057312.081267.057583.056137.152681.025537.166602-.047549.052521.361861.063866.291577-.023955.073448-.158015-.286198-.110466-.089765-.102104.033221-.088047.059707-.01591.069922.092025.175461.112997.159597-.03078.011164-.159235-.018396-.099121.264051.004113.223959.105584.161766.014238.137042-.003571.07512-.160455.014102-.05008.138263-.032769.125878-.181879.18206-.033402.213519.139574.286695-.096544.375375-.20814.058623-.021741.273904-.032588.168275.16597.112635.187123.0899.232005.168817.218852.067256-.021695.258536-.078736.230558-.45393.306357-.238016.067301-.141788.02834-.05677.20484-.053606.224457.292345.028114.21727.173066.118149.054374.046419.040905.009356.05808-.059301-.001898-.299758-.161314-.085426-.01261-.15024.060657-.229112.167326-.241813-.006328-.066352.245474.031775.124477.126556.046374.090443.076657.0033.203439-.050261.14563-.029696.288187-.022147.088273.008226.142692-.072408.197021-.072273.141698-.100431.111008-.131573.009311-.006509-.064499.018441-.054329.16606-.206603.137088-.51305.000316-.172749.017401-.178399-.053967-.07964-.103369.010712-.088454.047775-.067527.338267-.051301.173879-.163393.114036-.164975.028566-.213067.011435-.027436-.048363.048363-.007819.368098-.135054.082352-.126737-.054962-.180885.082262-.086691.052521-.099979.104228-.441862.051029-.111008.025582-.092115-.127415-.06486-.049312-.005514-.107482.022012-.082036.070691-.03182.059436.031368.177902.022373.068612.000904.055775-.019209.063911-.082442.083798-.191642.059617-.090895.011028-.125246.051662-.224457.006689-.177134-.035119-.405929.085335-.010441.215914.102737.155393.097855.103505-.201089.12511-.230242.225361-.172478.10007-.081403.090307-.294063.213519-.066306.159371-.002305.117155.097448.147664.18536.130172.088589-.009356.039006-.048679.019797-.072318-.079685-.188162-.10911-.007413-.050125-.029696.033085-.050351.082804-.060973.188569-.025763.256277-.078872.169811-.15015.046238.002622-.091437.1944.028204.112997.03408.076928.261203.098488.160229.108115.238785.035617.042894.001175.017627-.036159-.029922-.050125.006599-.066487.040453-.047459.188027.035978.139212.162444.076973.150918-.075075.183235.066397.167777-.076612.045651-.250853.199371-.106172.174151.212615.171077.10798.047865.06938.014735.07616.038057-.023865.060837-.12172.089313-.106443-.021379-.108341-.112545-.084657-.038554-.089448-.016904-.073086.08529-.088906.143054.061561.094736.053018.025402.18658.045289.071504.051165-.004158.10468.038464.090397.165201.041899.190241-.024272.192411-.043074.125969-.106172.090171-.21849.041447-.131031.0433-.009899.10798.382155.008317.104093.025402.089313.053922.043255.091753.148839.146986.06703.008814.053651-.192185.035662-.435444-.26622-.530361.004655-.200637-.054284-.246288-.023955-.008136.277791.018125.19214.104002.150331.033447.174015.175732.048995.097494-.065041.131754-.046464.217225.081403-.063956.049041-.09677.000994-.062736-.017221-.068838.039142-.151551.134963-.054962.339939.002848.437704.029198.524305-.011209.085019.024046.044611.062871.065312.107302.063459.049086-.166602.022373-.145223.037515-.121042.088183-.107302.016724-.133517.044973-.146444.124025-.00904-.003932.043391-.062645.023955-.04095.05338.013062.115799-.02382.148794-.034487.106352-.045831.097177-.014599.117517.14224.106081.127777.056363.07503.14911-.073764.024904-.085516-.053244-.195891-.065357-.17171.041492-.080815.043029-.037334.201496-.006915.110014.204027.215733.131121.071776.082985-.034893.070374.115392-.081358.048905-.420303-.083979-.134511.15806-.261068.224954.151325.1252.122082.14798.068205.022419.091663.061425.367058.125788.107934.071459-.314583-.044204-.015503.218355.044204.049402.090126.139212.158738.193586.115709-.078058.188976-.426902.093923-.087007.03408.004249-.051888.135732.106036.101742-.005605.040814-.054645-.000859-.109064.08086-.112364.244886.024136.180704-.05469.002983-.390381-.215507-.022328-.035752-.045605-.03417-.188885-.384053-.045651-.125743-.265452-.185586-.107482-.036973-.103234.083346-.072499.107663.098759.114759.071007.145992-.049221.076521-.201722.029696-.345092.004113.052611.183461.09659.168229.225135.32082.166693.041718.138037.078013.105629.033492.12502.022825.109697.057493.162941.01695.119325-.016272.243033.125517.058306.115347-.045334.50853-.186942-.069651-.169947.181156.067165.056182.231643.128861.105358-.047504.049312.057267.062736.020023.077606-.010079.136816.108296.09094.185812.085742.144139.180433.051843.260164-.141924.348075-.233406.43906-.108341.022373-.110149-.087911-.075256-.074261-.030464-.113358-.113268-.435444-.195032-.064725-.01582-.044973-.031187.037831-.042803.056137-.024814.488824.236751.292435.236434.070736.10242-.006011.149562-.038419.07738-.136048.099121-.000226.108025.014961.053741.119596.238559.006418.083753-.005333.068838-.012836.048137-.047865.092657-.083934.067482-.060928.023503-.049447-.050125.0273-.047504.147302-.136455.016859-.096996-.022916-.098398-.082352-.080951-.060521-.098669-.000859-.106488-.05338-.043978-.07973-.019707-.064499.020746-.13433.153269-.258943.148116-.164614.050351-.08868.014509-.175416-.035662-.099347.012746-.156161-.134873h-.047233l-.001446.105539-.023232.111189-.061922.03078-.114172.032227-.275124-.134014-.124794-.007865-.082081-.061877-.093606-.02739-.041086.023187.039684.09564.036792.055594.082759.205925.034441.117245.076657-.011209.075075.047865.05008.197111-.048046.116341.028611.111867.133381.087957.272593-.048046.167371.043662.272186-.163258.184501.052024.088228-.110375-.007503-.134602.080047.000181.067843.084657-.095821.120409-.128319.189518-.140613.085064-.400189.149336.184139.120138.06373.110918.162715.162625.288503.034848.089539-.051301.043436-.042622.009221-.08077-.005559-.154851.118149-.198965.173834-.124929.048001-.125833-.014102-.117336.086194-.075346.089991-.011616.187755.05573.034939.079098.054238.039187.163574-.156975.119957-.031594.553277.028792.196795.041492.205247.081538-.057357.069516-.049538.030238-.275305.039775-.243666-.066171-.184863.007051-.44923.296594-.231508.00565-.007322-.078962-.058668-.044747-.069154.023955-.139348.103279-.076567.094058-.027752.117336-.007548.335781-.110556.100251-.072905.120138.072679.085877.363171.235033.237881.074171.024226-.162082.05112-.147302.045786-.065628.24109-.2217.199145-.123166.309069-.113313.682319-.429207.214739.083708.096364.063143-.010983.076747-.022645.058623-.145404.204795-.14893.132839-.45488.227756-.06816.458179-.134014.070962-.014825-.051029.047413-.067572.05225-.109336-.032769-.20466-.118963-.093832-.186445.028159-.223959-.005288-.076793.012746-.142873.175326.019571.122895.028701.097268.270604.293746.098307.061109.306311.103821.238061.147122.334199.069109.195439.077742.287418-.10685.116251-.083618.064273-.381386-.049899-.222378.00104-.135958.04321-.266537.174964-.478157-.02391-.132929.058803-.218174.153495-.101471.15693-.07042.230016-.022735.646838-.26509.192411-.014373.191236-.073403.079866-.077561.152094-.27309.27526-.114669.14337.010712.169224.091889.75405.168546.066306-.089041-.133381-.196253-.263825-.330086-.302198-.53235-.064905-.066758-.089855-.072815-.197337.046374-.177766-.108929-.128409.016362-.075346-.045831.140252-.044476.190512.003119.213654-.02495.030735-.103415.007639-.075391-.048317-.253474-.104047-.365431-.076883-.182467-.089539.022057-.112048.070013-.00913-.031232.165066-.136816.107211-.151868.01817-.197021.068476-.297814.060747-.147438.140839-.20475.253519-.177088.214603-.097855.165744-.053289.058261-.064318-.069335-.116161-.078736-.096454-.087414-.046509-.20692-.037967-.303419.026758.089087-.059753.336097-.057538.030961-.126692-.045696-.121042.006825-.071143.131393.199145.108884.19327.111279.112906.197157.108025.149201-.023006.309792-.186535.117697-.112997.05677-.105765.162534-.896787-.042442-.066035.011797-.099121.2923-.508847.271418-.236615.176998-.21718.13085-.103279.334651-.17971.249452-.177134.271373-.132025.503016-.440823.098669-.110737.041764-.072544.136545-.060702-.071685-.149562-.094375-.045063-.218129.045063-.100341.007503-.070646-.052566.24683-.073855.206332-.13885.096318-.107618.052024-.118421.049899-.378403-.041447-.14911-.113087-.168862-.193722-.106307-.871702-.081674-.169088-.066487-.815384-.759925-.160229-.186083-.076115-.162986-.030374-.126918-.030509-.171665.012475-.190693.057357-.137404.218807-.323849.181066-.329498.422834-.530045.078826-.049131.397703-.0739.069018-.041492.053289-.066442.195032-.13867.210761-.113584.578272.069922.159054.00113.044159-.103595.008859-.114443-.132703-.130715.067843-.2217.382878-.302334.09555-.19119.032498-.132794-.057357-.198829.09338-.178942-.088363-.426224.028159-.256457.041809-.09451.083708-.080996.27309-.370946.194671-.169676.166738-.086329.378494-.123618.075572-.055911.075617-.089991-.081855-.03191-.081855.002396-.250898-.067391-.531808-.24231.07512-.149246.212298-.053334.215914-.16389.217496-.028927.218716.094646.102059.118918.03747.176501.119415.170851.128229.032046.457682-.122714.064182-.096092.036295-.080454.0306-.225948-.001944-.239734-.045425-.198965-.073403-.150918-.059798-.057357-.088318-.062645-.130172.017221-.254559.093335-.194264.056905-.032633.052159.256412.024633-.001356.140252-.051752.066984-.218897.042713-.208366.019481-.20136-.028566-.004203-.096544.066758-.091166.016724-.046555-.034803-.025085-.113313.01035-.103008-.064589-.265497-.094646-.118104-.095821-.097222-.211665.069606-.35951-.015006-.28448-.146625-.522587-.036249-.21153.004203-.251847.024678-.105087.085516-.11946.203982-.117019.063414.007096.087053.032769-.020701.058126-.044295.032498.309611.064499.318289.107754.34803.135325.468258.225813.202174.015503.546859-.011661.339397-.067934.215372-.099211.538813-.248005.124613-.120726.074216-.221654-.196885-.341069-.044656-.162263.033628-.251214.104138-.386901.049538-.087007.044069-.023323.163664-.08651.065267-.403037.007955-.167235-.071866-.046916-.065222-.079911.168049-.01035-.097358-.100205-.110466-.074894-.114985-.028972-.057538-.144681.046103-.253474-.094736-.21049.053108-.082262.194535.02052.163619.16484.292842.066487.328097.057628.293791-.027978.361906.018893.278469-.029696,1.438403-.211394.203304-.064589.894663-.191823,1.107232-.368731.713552-.412483.13189-.129901.053063-.272593.149156-.254107.411941-.459399.482089-.750253.073719-.163032.005062-.17754-.03991-.471739-.025808-.056996-.042894-.064951-.250988.009221-.185902-.085019-.25248-.232502-.094239-.178625-.053515-.192275.028837-.273226.260796-.324979-.015729-.217225-.177857-.263147-.326515-.256005-.288503-.187665-.69502-.317973-.181337-.228434-.063188-.111596-.079278-.242129.06721-.049854.053108-.015684.057538-.089358-.022147-.198241-.027345-.10459-.036249-.138579-.098895-.217406-.022283-.133788.123528-.563356.040634-.259712.06486-.058984.089674.016407.078239-.006825.066352-.094736.03982-.082307-.065493-.58686.02513-.136771.052114.140568.043617.282944.063188.20258-.013831.109562-.081403.144681-.090985.095912-.09442.013198-.095369.066035.013605.115754-.077561.371036-.035843.313995.050758.289091.258265.294605.32873.29682.079007.124884.038645.086465.059029.044566.381974-.043978.498451.006463.421884.337363.52435.148658.100612.129042.184411.060657.073945.007819.102556.002215.340979-.146173.253791-.053108.404573.048091.17745.132929.190919-.00104.257904.05686.717981-.301566.124658-.099076.138489.00574.211665-.231236.300842-.205338.056679-.196433.27865-.347894.082985-.251757.070736-.104861.065493-.055323.601414-.507988.211213-.202038.147935-.191552.19223-.390336.223146-.64607.089584-.1718.112906-.152274.083979-.07842-.053108-.1172-.032679-.178535-.002712-.121087.098624-.281091.124161-.141291.042939-.160591.030012-.156161.060973-.066035.280774-.1398.281543-.204524.057041-.076069-.028837-.110194.034893-.094917.110511-.09659.023277-.252435.057041.041312.044611.071504-.006192-.234672.054962-.18084.078917-.081312.040498-.069651-.166512-.175416-.017673-.150466-.004068-.15476.064499.036611.021741.089539.072589.130805.185767.072363.020611.157743.124477.008271.382064-.200773.110511.024498.02269.092386-.047323.178264-.043978.02626-.093923-.063414-.041809.01826.036114.406969-.108115.159868-.228208.132387-.032769.149246.014599.068431-.034306.061787-.16832-.018938-.074171.055052.005198.21727-.022464.107256-.13085.201767-.232683.11833-.313543.320142-.164162.032498-.050532.052159-.06947.052702-.136319-.077742-.091121.022599.004927.122579.021921.094601-.034441.12633.03973.076476.159145-.185089.163212-.131754.451625-.291757.412709-.327058.308119-.326334.231643-.279509.171393-.249904.428529-.690636.35594-.911205.384189-.636352.329092-.417319.305724-.29569.331261-.249632.299396-.178218.003209-.191507.139122-.191145.059888-.148432.036973-.189654.020249-.360369-.049402-.384098.09442-.265678-.031458-.156161.055323-.097313-.019029-.103912-.033492-.093742-.029741-.257361-.08303-.250446.001672-.129359.024498-.133155.008814-.160817-.065674-.082849-.06364-.113675.046148-.059391.046509-.001627.07964-.066171.057674-.347352-.04886-.085923-.088454.000226.017673-.043888.161314-.040408.192546-.310605-.038419-.066939-.103143-.04104-.247598-.042306-.052928-.174196.117381.096183.106714.015458.117743-.006328.06486-.056272-.041266-.131302.074894-.054871.172478.048634.11711.004972-.075572.132568.053063.018712.238559-.254966.126963-.097042.028159-.141788-.068205-.003887-.039865-.042035.100115-.050803.050442-.003435.060747-.063007.319555-.243214.608374-.406833.360957-.362403.3163-.177676.880787-.443354.172388-.044837.238694.001672.183913.056227.084024-.003209.041312-.061922.013514-.102917.130895-.120454.147077-.033899.35273-.272774.380392-.064996.064318-.026306.066035-.059527-.068747-.063866-.07051-.03069-.009808-.139845.058713-.072182.360188-.070781.294063.008452.134421-.092883.242491-.047911.218219.078103.036069.060521-.154353.05121-.143641-.015051-.100296.030961.100296.061877.217044-.048905.272412-.02834.218355-.067798.194309-.009537.040905-.073764-.020385-.084748-.037153-.069064-.007096-.047187.017311-.066442.099889-.031458.09094-.002576.027888.066306-.047097.111189.02608.073448.086827.056137.077425.034351.172523.008769.331939-.045334.613256-.000271.107076.008769.073403-.142828.062284-.07964-.060476-.073403-.015277-.127686.022916-.089493.367601-.378901.163981-.092205.615651-.222423.163393-.119099.016678-.109788-.045108-.431376-.002079-.019481-.032272-.126963.12398-.372573.168184-.287102.052882-.174015.08312-.083075.174512-.086646.268299-.297362.10346-.199145.026306-.184365.12859-.119957.081584-.329046.187665-.31282.209496-.128274.082126-.10685.06929-.162715.042261-.242898-.056227-.595086.002848-.283803.119008-.532757.219349-.360007.099166-.096228.179484-.096906.166331-.199552-.022193-.084702-.059707-.447015.016543-.188478.052024-.184094.052069-.382788.082623-.354041.136997-.433727.107211-.439331-.006192-.030328-.077516-.378087-.070826-.422517-.023006-.432416-.061787-.381432.156794-.846345-.032317-.036927-.056182.132477-.052973-.077561.017673-.071685-.008317-.315442.05338-.126602.016859-.06703-.02739-.045515-.034532-.030645-.07277.039775.029334-.145721.048769-.156026.095957-.124477.165653-.170173.002848-.154444.092838-.169766-.026577-.084838-.091121-.073312.085245-.009989.058984-.046148.070781-.168229.049402.027933.172614.158873.034803.262469.069018.014102.060883-.001175.216682-.164794.294831-.341476.082804-.156252.359149-.506406.293385-.601368.076928-.21049-.035662-.139302.105991-.19006.05008-.050261.001266.069199-.014464.058171-.031097.054736-.001492.071866.054645-.037605.179077-.253565-.002124-.160094.076657.022193.042939-.040588.208004-.31508.226671-.199869.177269-.109833.299712-.134285.017763-.007865.233768-.347759.225361-.200411.226717-.30604.050442-.100838-.057628-.114579.081177.042939.088454-.022102.223146-.217089.342606-.415376.244841-.401907.255553-.699902.101787-.421839.074713-.161359-.002983-.133291-.055775-.166105.007548-.074035.024362-.077199-.008136-.052476.004113-.082442.055052-.184953ZM64.216567,61.502431l-.024904.078329-.056679.088228-.045696.088002-.050442.081358-.055323.095143-.047233.046283-.052521.015096-.063821-.010893-.058351-.072227-.049673-.057764-.052837-.034939-.070013.014057-.084748.055549-.056634.164704-.072589.147257-.085606.038509-.045379.005785-.035029.01469-.033718.03634-.042306.058261-.037334.114353-.021605.171529.02043.182241-.022147.088002-.048905.022464-.024.015548-.024678-.006689-.008317-.007277v-.000045l-.014238-.012475-.017853-.037063-.013514-.047956-.008271-.073403-.005379-.098036-.011887-.102601-.02391-.084205-.021289-.075979-.005424-.082578.033085-.084838.071414-.08077.097991-.097584.089132-.006961.069064-.04199.041944-.064092.013469-.072001.000362-.061018.015051-.048137.048724-.04104.064273-.038374.052566-.04217.012294-.010441h-.000045l.03973-.033763.063233-.043165.08294-.032453.051391-.094962.043165-.097222.1092-.053786.089403-.06138.008678-.063549.015548-.054645.016769-.070239.04669-.067843.032679-.027933.025492.008136.014961.049402v.1638l.049176.067979.037153.088228.043074.067436.002486.06034-.009266.067436ZM75.458202,47.86504l-.038554-.042577-.030012-.012294-.041809.058984-.114985.078375.05356.056453.133155-.030102.086601-.034035.077154.003842-.041764-.038464-.083346-.040182ZM82.844299,33.805991l-.022373.127957-.136545.108296.005243.085923.05243-.029153.190784-.141201.001175-.027164-.019119-.065448-.071595-.05921ZM27.398717,20.552382l.051029-.169133.029696-.016136.077516-.018938.139348-.124884-.117969-.068792-.111686-.006644-.086827.036475-.104273.075572-.034939.078149-.029922.185902-.00104.058668.036475.016498.127053.00452.025537-.051255ZM29.045847,14.795878l-.031323.014373-.091527.07399.034848.063595.075391-.009853.01261-.142105ZM65.623737,17.464951l-.176862.272955-.00235.306944-.163167.154625-.182286.332301.141562-.025085.260525-.122082.230739-.173744.207326-.248819.045199-.002712.154534-.471648-.124703-.166422-.227982.032498-.162534.111189ZM75.043187,20.224194l-.08981.078013-.017085.08068.022147.104093-.043346.151099.131619-.130217.022373-.169811-.006283-.029424.007819-.095957-.027436.011526ZM35.789264,78.866498l-.147438.053334-.23101.007277-.004068.083482.033718.024995.216773.056227.023232-.012565.045605-.063414.09433.012746.058803-.010983-.028068-.080273-.041131-.062419-.020746-.008407ZM34.675478,81.957229l.016181.12624.155257-.026758.1285.057809.129811-.035571.074307-.073674.092296-.062962.019661-.070194-.014509-.061109-.100838-.183235.040136-.30934-.033583-.17293-.14893.050532-.03756.082171-.070013.053334.01026.232954-.0852.165337-.117743.123483-.058035.103912ZM34.665308,78.490943l-.063595-.027797-.097177.021921-.032543.033989-.000904.04095.04312.048589.189473-.028566.005288-.013334-.010531-.036069-.033131-.039684ZM40.231707,98.186222l-.107663.045153-.179258.013243-.074216.027797-.164614-.045922-.022961-.021605-.062193-.117607-.12972-.000904-.144997-.042803-.236977-.01826-.048498.008859-.035662.092612.013786.04547.027074.031775.024181.006328.084522-.038102.034848-.039865.034306-.009989.094058.011254.110918.083211.173337.09781.031368.030464.003706.061018.03295.041402.166331.033447.095008.045244.044747.005107.093697-.041086.05808-.005288.062013.05564.016543.042894-.006328.049131.090759.029244.095505-.021243.14215-.09659.019797-.089041-.1798-.291803-.156794.023006ZM74.013109,48.762234l-.040227-.034351-.199326.236525.051617.055368.147483-.02843.055685.037379.000859-.073357.013288-.050939.023006-.038871-.021379-.060205-.031006-.04312ZM45.571479,98.647701l-.077742.045153-.033492.036249-.015865.039684.008633.036792.025447.02947.079459.005514.106443-.081629.048543-.073357-.116793-.045108-.024633.007232ZM47.139059,97.650437l-.505186.039368-.328278-.100793-.325024-.120861-.302696-.170715-.278243-.234898-.260842-.167506-.273226-.136952-.300571-.180388-.278605-.2344-.234717-.24683-.24466-.228208-.105901-.079324-.091256-.099708-.181292-.446021-.02278-.022916-.310244-.020927-.127551-.061696-.042803-.070917-.000362-.080996.055233-.115121.064634-.105991.131257-.064544.124161.11268-.050939-.177179-.080951-.151687-.310786-.370403-.078555-.076205-.039187-.037967-.131438-.089222-.04312-.009492-.388031.175732-.116432-.012158-.330357-.326425-.112726.009311-.098262.104183-.122217.174603-.13415.153359-.160003.122082-.069832.03982-.077697.000407-.126602-.095234-.135641-.081041-.194219.018351-.060476.032769.110692.117381.051029.072634.128997.075527.031006.036747.011887.042396-.040453.049086-.047594.036747-.080047.025085-.085109-.006147-.09451.046645-.070465.10703-.022193.104771-.000407.114081.059617.178942.115528.132432.155709.06608.163755.007639.289181-.123076.158467-.024181.158602-.00565.166422.014373.159145.057176.050261.077968.004701.115935-.050125.035391-.400912.184953-.347623.129042-.189066.091663-.077199.071911-.003074.232276.08764.225496.130308.179755,1.059728.451264.202354.096454-.001175.040001-.042848.0306-.067708.023277-.055233.047368-.112319.136862-.078736.025989-.013876-.053199-.003525-.100657-.053108-.093335-.07286-.056182-.27065-.079369-.160727-.107211-.089855.027526-.077471.086013-.164659.025492-.239146-.003751-.099482-.058306-.003661-.129268-.179032-.178038-.207688-.08181-.126421-.239689.2264.000226.108025-.034758-.084793-.170896-.117833-.486473-.116974.050623-.102737.132161.06834.174467-.298537.112228.01469.204524-.008452.210355.138037.240547.165427.038645.128545.075663.095866.128635.228208.207146-.017808.079324-.143009-.048498-.207372.003977-.171348-.034984.01817-.130443-.015096-.121494-.131619-.039775-.135008.019616-.040046.04086-.024091.070013-.027074.039594-.151777.045605-.105494.011661-.26265-.101742-.051029.008814-.143054.082488-.09677.092974-.044882.003435-.146444-.098714-.112771-.017853-.031142.074578-.111686.037696-.027752.062555.034984.134602.093606.045515.522361-.012113.283079.137856.40724.037425.253429.067075.318244.10929.288096-.107121.030283.008497.028475.039278.133336.07729.143867-.00687.175235-.062465.17067-.079052.064679-.05008.181699.186535.13546.085471.541073.094601.31838-.06147.053108-.042939h.201405l.046238-.036747.17067.00452.213067-.036927.149201.00235.284797.057222.285972.037515.890821.065222.262921.039187.40489.164162.155845.035074.150376-.042351.149653-.058758.15345-.004565.14893-.034441.142918-.06947.149472-.017401.159461.030464.159732.003254.176727-.02504.167326-.068114.125246-.165156.098081-.205112-.097584-.074081-.156885-.010983ZM48.926757,97.854464l-.030102-.023142-.067391-.015187-.154037.000542-.291938.032181-.147574-.042848-.042984.067617-.058532.038735-.085742.001989-.09103.096092.034577.067572.125833.073403.172071-.116161.074081.000768.174331-.081312.393906-.007232.076341.033492.185405-.079098.022961-.079459-.088951-.003932-.201225.035978ZM44.814943,98.45068l-.184456-.159777-.239779-.016136-.601142-.072951-.311329-.000542-.259983.095234.169902.168501.05243.188704.047594.06373.039458.026577.404121.07173.041221-.005831.060883-.02513.142059-.095053.066758-.025085.054193-.001989.041809.008.027074.036204.018486.0659.040317.066668.07964.037922.110014-.020068.113494-.073222.084341-.094149.039504-.071278-.007413-.071821-.029198-.096138ZM44.229891,99.876427l-.290492-.018531-.096273.021469-.020927.028249.004384.027571.019933.014328.176546.015594.117788.034893.048453-.003842.040001-.022961.047413-.062239-.009989-.021695-.036837-.012836ZM43.501017,99.224436l-.083844-.077516-.204343-.149969-.028249-.044701.005062-.045741.053606-.09894-.063414-.066623-.069064-.051888-.272548-.025854-.037108-.041312.020339-.050713.265135-.160681-.077832-.152998-.261429-.003254-.330628.111234-1.072745-.183416-.242627-.068702-.048679.332798-.034351.092838-.055414.036701.010938.031142.124387.049628.028068.030735.016136.054464.03973.031097.192772-.032769.030057.018757.001446.129539.013876.041944.047685.035526.135777.057809.070872.099301.058713.037741.22866.060883.080182-.003661-.158015-.197202-.080544-.128183.004113-.049899.079052-.201541.139664.011254.055911.021469.139076.113629.051617.021289.127777-.032046.030148.004927.001492.041131-.057628.15693.00104.043436.047007.099482.038916.049267.109697-.02721.122308.031051.132839-.004203.170535.073086.172026.030328.059707.030148.085245.15024.096996.060159.099527.031684.045922-.013921.003661-.104319-.016995-.130217-.042261-.074171ZM44.489648,99.474927l-.031413-.042622-.031142-.007865-.068792.103957-.085561.040091-.044611.040679-.023142.045289.004701.03191.222739.05243.055007.02495.036023.03521.048724-.01487.028837-.026396.006463-.035752-.064182-.103415-.053651-.143596ZM51.768715,71.457892l-.079595-.036611-.168998-.040498.013017.037334.055775.088544.165246.09451.069606.011571-.013108-.098307-.041944-.056544ZM57.046293,92.123407l.060205-.087821.142963-.028114-.152455-.203168-.072182-.033899-.307487.036023-.0706.021967-.040182.071776.017492.086149.046916.079956.008859.04895-.049583-.006961-.270333-.116613-.047052-.045244-.013786-.105901.06929-.021469.081132.011616.037515-.080363-.063052-.086555-.107482-.028566-.255779.036159-.204162-.103776-.089991.003842.041221.152094-.280774.236796-.003797.174738.04556.107482.007819.062736-.047956.033221-.113177.014961-.10929.044159-.062826.076883-.350425.258536.045605.080725-.150376.190648.000542.102194.1558.182783.182648.128364.072408-.200818.113855-.023097.12511.033402.126737-.051391-.170941-.277972.086375-.017447.639833.163258.020159-.136229-.007187-.050442-.054058-.104635.464688-.129313.158286-.073674.089222-.101697.196524-.039142.221654-.061018.009401-.043798.052611-.086194-.099663-.056092-.125833-.038012ZM56.377534,92.869049l-.048815-.003842-.059301.051843.038193.076295.107166.04999-.008181-.157382-.029063-.016904ZM69.643798,52.185718l-.168546.170083.083844.176998.02495-.017401.021876-.031187.049447-.094827.044747-.134647-.056318-.069018ZM69.744094,53.995789l-.054103.084928-.049447.113855-.016588.341114.091844-.064996-.014554-.086149.116613-.202174.042306-.16484-.049402-.074397-.066668.052656ZM54.21672,91.696279l.008904-.061425-.135867-.061063-.138986.01261-.000723.146444.036204.058126.183326-.000181.047142-.09451ZM54.889729,92.297105l.078872-.096635.103189-.06025.059617-.064905.05112-.080318.080589-.057628.034622-.090397-.0706-.078013-.089267-.041854-.103595.089719-.037922-.026351-.291351.077245-.103143.011978-.071052-.075708-.100974-.027029-.122488.039865-.177676.124929-.19345-.033809-.212931-.110918-.093923-.079956-.070555.006237.06712.124161-.006011.062736.022645.039504.121539.105855.150195.062962.076793.103867-.04782.030554-.24909.073177-.081358-.001401-.072815.029063.11024.078058.161133-.038057.068566-.029922.06929-.003119.051301.0306-.000452.068024-.06712.052204-.061289.06825-.154127.067075-.18893.132794-.229293-.009085-.265994.198106.199552.161811.168275.072725.237971.01139.032543-.043707.042848-.018034.090669-.011209.041131-.02513.087143-.118511.056092-.156071.070329-.006599.082216.019887.190603-.017447.091392-.025989.276119-.288774.189518-.225948ZM54.59535,93.106207l.009853.039368.001446.086872.0273.06721.023865.015594.085516-.034487.00217-.092341-.096544-.06929-.053606-.012927ZM53.09385,92.682289l.053741-.183235-.095324.009401-.095595-.024543-.043978.050306-.124884.045425.039142.063956.112048.119912.112861.00678.04199-.088002Z" fill="#000000"/></g>


</g><text id="svgAttribution" x="5" y="355" font-size="6px" fill="#000000" text-anchor="start" dominant-baseline="baseline">© FreeSVGMaps.com</text></svg>